<svg xmlns="http://www.w3.org/2000/svg" viewBox="0 0 3420.98 1963.18"><defs><style>.cls-1{fill:#e6332a;}.cls-1,.cls-2,.cls-5,.cls-8,.cls-9{stroke:#1d1d1b;}.cls-1,.cls-10,.cls-11,.cls-2,.cls-5,.cls-6,.cls-7,.cls-8,.cls-9{stroke-miterlimit:10;}.cls-1,.cls-2,.cls-5{stroke-width:6px;}.cls-2{fill:#2d2e83;}.cls-3,.cls-4{font-size:72px;}.cls-3,.cls-4,.cls-9{fill:#1d1d1b;}.cls-3{font-family:BritannicBold, Britannic Bold;}.cls-4{font-family:Impact, Impact;}.cls-10,.cls-11,.cls-5,.cls-6,.cls-7,.cls-8{fill:none;}.cls-6,.cls-7{stroke:#b2b2b2;}.cls-6{stroke-width:4px;}.cls-7,.cls-8,.cls-9{stroke-width:10px;}.cls-10,.cls-11{stroke:#e30613;}.cls-10{stroke-width:39px;}.cls-11{stroke-width:5px;}</style></defs><title>bal</title><g id="bal"><g id="b_bal"><path id="boven" class="cls-1" d="M18.41,1655.18c0-40.05,92.06-72.47,205.83-72.47H216c118.33,0,214.08,32.41,214.08,72.47l-10.26-22.25a221.32,221.32,0,0,0-390.62-1"/><path id="onder" class="cls-2" d="M22,1831.41c23.11,27.55,100.62,47.78,192.81,47.78,118.33,0,214.08-29,214.08-64.91v5.95c-32.4,82-112.34,140-205.83,140A221.3,221.3,0,0,1,19.59,1826"/><text class="cls-3" transform="translate(156.74 1821.46)">NBA</text><text class="cls-4" transform="matrix(0.92, -0.4, 0.4, 0.92, 91, 1711.1)">S</text><text class="cls-4" transform="translate(123.7 1696.81) rotate(-16.45)">P</text><text class="cls-4" transform="translate(155.22 1687.31) rotate(-9.89)">A</text><text class="cls-4" transform="translate(189.99 1681.43) rotate(-3.93)">L</text><text class="cls-4" transform="matrix(1, 0.04, -0.04, 1, 215.98, 1679.25)">D</text><text class="cls-4" transform="translate(254.53 1681.1) rotate(7.51)">I</text><text class="cls-4" transform="translate(274.06 1683.21) rotate(12.65)">N</text><text class="cls-4" transform="translate(310.75 1691.36) rotate(19.24)">G</text><path id="midden_boven" class="cls-5" d="M18.41,1657.67c0-40.05,92.06-72.47,205.83-72.47s205.83,32.41,205.83,72.47l-10.26-22.25a220.27,220.27,0,0,1,25.66,103.52H3a220.26,220.26,0,0,1,26.19-104.51"/><path id="midden_onder" class="cls-5" d="M20.78,1826a220.52,220.52,0,0,1-17.78-87H445.48a220.66,220.66,0,0,1-15.41,81.28c0,32.56-91.53,58.9-204.65,58.9-115.67,0-209.27-29-209.27-64.85"/></g></g><g id="doel"><g id="net"><line class="cls-6" x1="2338.93" y1="1225.32" x2="2734.43" y2="1225.32"/><line class="cls-7" x1="2312.7" y1="1166.13" x2="2748.55" y2="1166.13"/><line class="cls-7" x1="2292.52" y1="1084.07" x2="2776.8" y2="1084.07"/><line class="cls-7" x1="2211.8" y1="1002.01" x2="2837.34" y2="1002.01"/><line class="cls-7" x1="2175.48" y1="919.95" x2="2889.8" y2="919.95"/><line class="cls-7" x1="2667.84" y1="800.22" x2="2667.84" y2="1330.25"/><line class="cls-7" x1="2536.68" y1="797.54" x2="2536.68" y2="1358.5"/><line class="cls-7" x1="2405.52" y1="800.22" x2="2405.52" y2="1330.25"/><line class="cls-7" x1="2667.84" y1="1330.25" x2="2734.43" y2="1225.32"/><line class="cls-7" x1="2926.12" y1="841.93" x2="2889.8" y2="919.95"/><line class="cls-7" x1="2837.34" y1="1002.01" x2="2889.8" y2="919.95"/><line class="cls-7" x1="2776.8" y1="1084.07" x2="2837.34" y2="1002.01"/><line class="cls-7" x1="2746.03" y1="1165.17" x2="2779.32" y2="1085.03"/><line class="cls-7" x1="2139.16" y1="837.89" x2="2175.48" y2="919.95"/><line class="cls-7" x1="2211.8" y1="1002.01" x2="2292.52" y2="1084.07"/><line class="cls-7" x1="2312.7" y1="1166.13" x2="2338.93" y2="1225.32"/><line class="cls-7" x1="2746.03" y1="1165.17" x2="2734.43" y2="1225.32"/><line class="cls-7" x1="2405.52" y1="1330.25" x2="2338.93" y2="1225.32"/><line class="cls-7" x1="2273.99" y1="1065.24" x2="2312.7" y2="1166.13"/><line class="cls-7" x1="2175.48" y1="919.95" x2="2211.8" y2="1002.01"/><line class="cls-7" x1="2536.68" y1="1358.5" x2="2667.84" y2="1330.25"/><line class="cls-7" x1="2405.52" y1="1330.25" x2="2465.04" y2="1358.5"/><line class="cls-7" x1="2536.68" y1="1358.5" x2="2465.04" y2="1358.5"/></g><path id="ring" class="cls-8" d="M2608.38,1042.63l317.74-200.71c0,12.19-176,22.06-393.48,22.06s-393.48-11.67-393.48-26.09l290.57,204.74L2139.16,837.89c0-22.31,176-40.36,393.48-40.36s393.48,19.86,393.48,44.39Z"/><rect id="aanhechting" class="cls-9" x="2429.73" y="863.98" width="178.65" height="178.65"/><rect id="inner_square" class="cls-10" x="2139.16" y="293.07" width="786.96" height="601.51"/><rect id="bord" class="cls-11" x="1646.8" y="2.5" width="1771.68" height="1182.46"/></g></svg>