<svg id="Layer_1" data-name="Layer 1" xmlns="http://www.w3.org/2000/svg" viewBox="0 0 445.94 436.8"><defs><style>.cls-1{fill:#f4bfb9;}.cls-2{fill:#fff;}.cls-3{fill:#303e5c;}</style></defs><title>mandala</title><circle class="cls-1" cx="409.81" cy="96.36" r="3.53"/><circle class="cls-1" cx="421.32" cy="84.85" r="5.29"/><circle class="cls-1" cx="3.53" cy="354.17" r="3.53"/><circle class="cls-1" cx="121.89" cy="46.03" r="3.53"/><circle class="cls-1" cx="273.44" cy="417.76" r="3.53"/><circle class="cls-1" cx="15.04" cy="342.66" r="5.29"/><circle class="cls-1" cx="15.04" cy="110.32" r="5.29"/><circle class="cls-1" cx="403.71" cy="400.14" r="5.29"/><path class="cls-2" d="M389.46,87.55s.07-20.13.45-32.3c.74-23.67-35.46-17.46-32.21-45h-.56c2.48,27.61-33.53,20.39-33.45,44.08,0,12.17-.45,32.3-.45,32.3Z" transform="translate(-129.04 -9.24)"/><path class="cls-3" d="M390.45,88.57l-68.23-1,0-1c0-.2.49-20.25.45-32.27,0-11.86,8.56-16.39,16.87-20.78,9.17-4.83,17.82-9.39,16.58-23.21l-.1-1.1,2.77,0-.13,1.1C357.06,24.16,365.59,29,374.62,34c8.19,4.61,16.66,9.38,16.29,21.24-.38,12-.45,32.07-.45,32.27Zm-66.19-2.92,64.19.89c0-4.24.12-20.83.45-31.32.33-10.65-7.25-14.91-15.27-19.43-6.92-3.9-14-7.89-16.35-16-2.57,8.09-9.77,11.89-16.79,15.59-8.15,4.29-15.84,8.35-15.8,19C324.73,64.82,324.36,81.41,324.27,85.64Z" transform="translate(-129.04 -9.24)"/><path class="cls-2" d="M389.46,367.72s.07,20.13.45,32.3c.74,23.67-35.46,17.46-32.21,45h-.56c2.48-27.61-33.53-20.39-33.45-44.08,0-12.17-.45-32.3-.45-32.3Z" transform="translate(-129.04 -9.24)"/><path class="cls-3" d="M356,446l.1-1.11c1.24-13.82-7.42-18.38-16.58-23.21-8.31-4.38-16.91-8.91-16.87-20.78,0-12-.44-32.07-.45-32.27l0-1,68.23-1v1c0,.2.07,20.26.45,32.27.37,11.86-8.1,16.63-16.29,21.24-9,5.08-17.56,9.88-15.93,23.67l.13,1.1Zm-31.78-76.4c.1,4.24.46,20.82.43,31.32,0,10.65,7.66,14.71,15.8,19,7,3.7,14.23,7.5,16.79,15.59,2.34-8.16,9.43-12.15,16.35-16,8-4.52,15.6-8.78,15.27-19.43-.33-10.49-.43-27.08-.45-31.32Z" transform="translate(-129.04 -9.24)"/><path class="cls-2" d="M216.49,194.76s-20.13-.07-32.3-.45c-23.67-.74-17.46,35.46-45,32.21v.56c27.61-2.48,20.39,33.53,44.08,33.45,12.17,0,32.3.45,32.3.45Z" transform="translate(-129.04 -9.24)"/><path class="cls-3" d="M216.56,262l-1,0c-.19,0-18.67-.45-30.77-.45h-1.5c-11.89,0-16.4-8.58-20.77-16.87-4.52-8.59-8.8-16.7-20.66-16.7-.82,0-1.68,0-2.55.12l-1.1.1,0-2.77,1.1.13a27.8,27.8,0,0,0,3.25.2h0c11.33,0,15.74-7.83,20.41-16.13s9.37-16.67,21.24-16.29,32.07.45,32.27.45h1Zm-31.78-2.48c10.49,0,25.77.34,29.81.43l.89-64.19c-4.24,0-20.83-.12-31.32-.45-10.65-.36-14.91,7.24-19.43,15.27-3.89,6.91-7.89,14-16.09,16.35,8.13,2.56,11.93,9.77,15.63,16.79,4.28,8.13,8.33,15.8,18.92,15.8Z" transform="translate(-129.04 -9.24)"/><path class="cls-2" d="M496.67,194.76s20.13-.07,32.3-.45c23.67-.74,17.46,35.46,45,32.21v.56c-27.61-2.48-20.39,33.53-44.08,33.45-12.17,0-32.3.45-32.3.45Z" transform="translate(-129.04 -9.24)"/><path class="cls-3" d="M496.6,262l-1-68.23h1c.2,0,20.26-.07,32.27-.45,11.87-.37,16.63,8.1,21.24,16.29s9.08,16.13,20.41,16.13a27.81,27.81,0,0,0,3.25-.2l1.1-.13,0,2.77-1.11-.1c-.87-.08-1.73-.12-2.55-.12-11.86,0-16.13,8.11-20.66,16.7-4.37,8.29-8.89,16.87-20.69,16.87h-1.58c-12.1,0-30.59.45-30.77.45Zm1.08-66.24.89,64.19c4-.09,19.32-.43,29.81-.43h1.51c10.67,0,14.72-7.68,19-15.8,3.7-7,7.5-14.23,15.63-16.79-8.2-2.34-12.2-9.44-16.09-16.35-4.42-7.86-8.6-15.28-18.75-15.28H529C518.51,195.64,501.92,195.74,497.68,195.76Z" transform="translate(-129.04 -9.24)"/><path class="cls-2" d="M280.77,105.34s-14.19-14.28-22.52-23.16c-16.22-17.26-37.42,12.73-54.59-9l-.4.39c21.28,17.77-9.29,38.13,7.51,54.82,8.64,8.58,22.52,23.16,22.52,23.16Z" transform="translate(-129.04 -9.24)"/><path class="cls-3" d="M233.27,152.93l-.7-.73c-.14-.15-14-14.67-22.5-23.14s-5.54-17.64-2.76-26.62c3.07-9.9,6-19.24-4.69-28.14l-.85-.71,2-1.93.69.87c4.26,5.4,9,7.91,15,7.91h0c4.23,0,8.67-1.24,13-2.44s8.77-2.45,13.06-2.45a17.68,17.68,0,0,1,13.48,6c8.23,8.76,22.36,23,22.5,23.14l.71.72Zm-23.2-72.81c3.92,7.54,1.51,15.32-.85,22.91-2.73,8.79-5.3,17.1,2.26,24.61S230.4,147,233.33,150.08l46-44.76c-3-3-14.64-14.81-21.83-22.46a15.57,15.57,0,0,0-12-5.32c-4,0-8.15,1.15-12.52,2.38s-9,2.51-13.5,2.51h0A19.06,19.06,0,0,1,210.07,80.12Z" transform="translate(-129.04 -9.24)"/><path class="cls-2" d="M478.88,303.45S493.17,317.63,502,326c17.26,16.22-12.73,37.42,9,54.59l-.39.4c-17.77-21.28-38.13,9.29-54.82-7.51-8.58-8.64-23.16-22.52-23.16-22.52Z" transform="translate(-129.04 -9.24)"/><path class="cls-3" d="M510.63,382.45l-.71-.85c-4.27-5.11-8.93-7.5-14.65-7.5-4.42,0-9,1.43-13.49,2.81s-9.11,2.82-13.59,2.82a17.62,17.62,0,0,1-13-5.58c-8.47-8.53-23-22.36-23.14-22.5l-.73-.7L478.87,302l.72.71c.14.14,14.38,14.27,23.14,22.5s6,17.48,3.5,26.53c-2.79,10-5.42,19.4,5.47,28l.87.69Zm-76.5-31.55c3.07,2.93,15.05,14.4,22.45,21.84a15.51,15.51,0,0,0,11.61,5c4.18,0,8.47-1.33,13-2.73s9.35-2.9,14.08-2.9a18.93,18.93,0,0,1,8.85,2.1c-4.16-7.44-2-15.3.18-23,2.48-8.87,4.82-17.24-2.94-24.54s-19.45-18.85-22.46-21.83Z" transform="translate(-129.04 -9.24)"/><path class="cls-2" d="M234.28,303.45S220,317.63,211.12,326c-17.26,16.22,12.73,37.42-9,54.59l.39.4c17.77-21.28,38.13,9.29,54.82-7.51,8.58-8.64,23.16-22.52,23.16-22.52Z" transform="translate(-129.04 -9.24)"/><path class="cls-3" d="M202.53,382.45l-1.93-2,.87-.69c10.9-8.59,8.26-18,5.47-28-2.53-9.05-5.15-18.41,3.5-26.53s23-22.36,23.14-22.5l.72-.71,47.58,48.92-.73.7c-.15.14-14.67,14-23.14,22.5a17.62,17.62,0,0,1-13,5.58h0c-4.49,0-9.12-1.43-13.59-2.82s-9.06-2.81-13.49-2.81c-5.73,0-10.38,2.38-14.66,7.5Zm15.37-10.35c4.73,0,9.48,1.47,14.08,2.9s8.82,2.73,13,2.73a15.51,15.51,0,0,0,11.61-5C264,365.29,276,353.82,279,350.89l-44.76-46c-3,3-14.81,14.64-22.46,21.83s-5.42,15.67-2.94,24.54c2.14,7.66,4.34,15.52.18,23A18.93,18.93,0,0,1,217.89,372.1Z" transform="translate(-129.04 -9.24)"/><path class="cls-2" d="M432.39,105.34s14.19-14.28,22.52-23.16c16.22-17.26,37.42,12.73,54.59-9l.4.39c-21.27,17.77,9.29,38.13-7.51,54.82-8.64,8.58-22.52,23.16-22.52,23.16Z" transform="translate(-129.04 -9.24)"/><path class="cls-3" d="M479.89,152.93,431,105.35l.71-.72c.14-.14,14.27-14.38,22.5-23.14a17.67,17.67,0,0,1,13.47-6c4.29,0,8.75,1.25,13.06,2.45s8.73,2.44,13,2.44c6,0,10.78-2.51,15-7.91l.69-.87,2,1.94-.85.71c-10.65,8.89-7.75,18.24-4.69,28.14,2.78,9,5.66,18.26-2.76,26.62s-22.36,23-22.5,23.14Zm-46.08-47.6,46,44.76c2.93-3.06,14.4-15.05,21.84-22.45s5-15.81,2.26-24.61c-2.35-7.59-4.76-15.37-.84-22.91a19.07,19.07,0,0,1-9.42,2.31c-4.51,0-9.08-1.28-13.5-2.51s-8.5-2.38-12.52-2.38a15.58,15.58,0,0,0-12,5.32C448.46,90.51,436.79,102.31,433.81,105.32Z" transform="translate(-129.04 -9.24)"/><ellipse class="cls-2" cx="228.24" cy="219.02" rx="175.47" ry="175.99"/><path class="cls-3" d="M357.28,405.24c-97.31,0-176.47-79.4-176.47-177s79.16-177,176.47-177,176.47,79.4,176.47,177S454.58,405.24,357.28,405.24Zm0-352c-96.2,0-174.47,78.5-174.47,175s78.27,175,174.47,175,174.47-78.5,174.47-175S453.48,53.27,357.28,53.27Z" transform="translate(-129.04 -9.24)"/><rect class="cls-3" x="196.74" y="49.01" width="63.01" height="2"/><rect class="cls-3" x="196.74" y="56.01" width="63.01" height="2"/><rect class="cls-3" x="196.74" y="380.26" width="63.01" height="2"/><rect class="cls-3" x="196.74" y="387.26" width="63.01" height="2"/><rect class="cls-3" x="475.87" y="77.28" width="2" height="63.01" transform="translate(-66.28 359.82) rotate(-45)"/><rect class="cls-3" x="470.92" y="82.23" width="2" height="63.01" transform="translate(-71.24 357.77) rotate(-45)"/><rect class="cls-3" x="241.64" y="311.51" width="2" height="63.01" transform="translate(-300.51 262.8) rotate(-45)"/><rect class="cls-3" x="236.69" y="316.46" width="2" height="63.01" transform="translate(-305.46 260.75) rotate(-45)"/><rect class="cls-3" x="396.37" y="187.63" width="2" height="63.01"/><rect class="cls-3" x="389.37" y="187.63" width="2" height="63.01"/><rect class="cls-3" x="65.12" y="187.63" width="2" height="63.01"/><rect class="cls-3" x="58.12" y="187.63" width="2" height="63.01"/><rect class="cls-3" x="445.37" y="346.96" width="63.01" height="2" transform="translate(-235.41 429.87) rotate(-45)"/><rect class="cls-3" x="440.42" y="342.01" width="63.01" height="2" transform="translate(-233.36 424.92) rotate(-45)"/><rect class="cls-3" x="211.14" y="112.73" width="63.01" height="2" transform="translate(-138.39 195.64) rotate(-45)"/><rect class="cls-3" x="206.19" y="107.78" width="63.01" height="2" transform="translate(-136.34 190.69) rotate(-45)"/><ellipse class="cls-2" cx="278.68" cy="96.94" rx="55.32" ry="55.49"/><path class="cls-3" d="M407.72,162.66A56.49,56.49,0,1,1,464,106.17,56.47,56.47,0,0,1,407.72,162.66Zm0-111A54.49,54.49,0,1,0,462,106.17,54.46,54.46,0,0,0,407.72,51.69Z" transform="translate(-129.04 -9.24)"/><ellipse class="cls-2" cx="177.21" cy="96.94" rx="55.32" ry="55.49"/><path class="cls-3" d="M306.24,162.66a56.49,56.49,0,1,1,56.32-56.49A56.47,56.47,0,0,1,306.24,162.66Zm0-111a54.49,54.49,0,1,0,54.32,54.48A54.47,54.47,0,0,0,306.24,51.69Z" transform="translate(-129.04 -9.24)"/><ellipse class="cls-2" cx="278.68" cy="341.65" rx="55.32" ry="55.48"/><path class="cls-3" d="M407.72,407.37A56.49,56.49,0,1,1,464,350.89,56.47,56.47,0,0,1,407.72,407.37Zm0-111A54.49,54.49,0,1,0,462,350.89,54.47,54.47,0,0,0,407.72,296.4Z" transform="translate(-129.04 -9.24)"/><ellipse class="cls-2" cx="177.21" cy="341.65" rx="55.32" ry="55.48"/><path class="cls-3" d="M306.24,407.37a56.49,56.49,0,1,1,56.32-56.48A56.47,56.47,0,0,1,306.24,407.37Zm0-111a54.49,54.49,0,1,0,54.32,54.49A54.47,54.47,0,0,0,306.24,296.4Z" transform="translate(-129.04 -9.24)"/><g id="circle"><ellipse class="cls-2" cx="105.59" cy="168.56" rx="55.48" ry="55.32"/><path id="circle1" class="cls-3" d="M234.62,234.12a56.32,56.32,0,1,1,56.49-56.32A56.47,56.47,0,0,1,234.62,234.12Zm0-110.64a54.32,54.32,0,1,0,54.49,54.32A54.46,54.46,0,0,0,234.62,123.47Z" transform="translate(-129.04 -9.24)"/></g><ellipse class="cls-2" cx="105.59" cy="270.03" rx="55.48" ry="55.32"/><path class="cls-3" d="M234.62,335.59a56.32,56.32,0,1,1,56.49-56.32A56.47,56.47,0,0,1,234.62,335.59Zm0-110.64a54.32,54.32,0,1,0,54.49,54.32A54.46,54.46,0,0,0,234.62,224.95Z" transform="translate(-129.04 -9.24)"/><ellipse class="cls-2" cx="350.3" cy="168.56" rx="55.48" ry="55.32"/><path class="cls-3" d="M479.34,234.12a56.32,56.32,0,1,1,56.48-56.32A56.47,56.47,0,0,1,479.34,234.12Zm0-110.64a54.32,54.32,0,1,0,54.48,54.32A54.47,54.47,0,0,0,479.34,123.47Z" transform="translate(-129.04 -9.24)"/><ellipse class="cls-2" cx="350.3" cy="270.03" rx="55.48" ry="55.32"/><path class="cls-3" d="M479.34,335.59a56.32,56.32,0,1,1,56.48-56.32A56.47,56.47,0,0,1,479.34,335.59Zm0-110.64a54.32,54.32,0,1,0,54.48,54.32A54.46,54.46,0,0,0,479.34,224.95Z" transform="translate(-129.04 -9.24)"/><path class="cls-2" d="M384.15,135.22s.06-16.88.38-27.09c.62-19.85-29.74-14.64-27-37.73h-.47c2.08,23.15-28.12,17.1-28.05,37,0,10.21-.38,27.09-.38,27.09Z" transform="translate(-129.04 -9.24)"/><path class="cls-3" d="M385.15,136.23l-57.55-.8,0-1c0-.17.41-17,.38-27.06s7.22-13.87,14.23-17.57c7.64-4,14.85-7.83,13.82-19.31l-.1-1.1,2.68,0-.13,1.1C357.16,82,364.26,86,371.79,90.21c6.91,3.89,14.05,7.91,13.74,18s-.38,26.89-.38,27.06Zm-55.5-2.77,53.51.74c0-3.8.1-17.44.37-26.11.28-8.83-6-12.39-12.72-16.15-5.47-3.08-11.49-6.47-13.64-13.19-2.34,6.66-8.44,9.88-14,12.8-6.79,3.58-13.2,7-13.17,15.79C330,116,329.73,129.66,329.65,133.46Z" transform="translate(-129.04 -9.24)"/><path class="cls-2" d="M384.15,321.36s.06,16.88.38,27.09c.62,19.85-29.74,14.64-27,37.73h-.47c2.08-23.15-28.12-17.1-28.05-37,0-10.21-.38-27.09-.38-27.09Z" transform="translate(-129.04 -9.24)"/><path class="cls-3" d="M356,387.2l.1-1.1c1-11.48-6.18-15.28-13.82-19.31-7-3.7-14.27-7.52-14.23-17.57s-.37-26.89-.38-27.06l0-1,57.55-.8v1c0,.17.06,17,.38,27.06s-6.83,14.07-13.74,18c-7.52,4.24-14.63,8.24-13.28,19.69l.13,1.1Zm-26.31-64.08c.09,3.8.38,17.43.35,26.1,0,8.84,6.38,12.21,13.17,15.79,5.56,2.93,11.66,6.15,14,12.8,2.15-6.72,8.16-10.11,13.64-13.19,6.68-3.76,13-7.32,12.72-16.15-.27-8.67-.36-22.31-.37-26.1Z" transform="translate(-129.04 -9.24)"/><path class="cls-2" d="M263.51,200.72s-16.88-.06-27.09-.38c-19.85-.62-14.64,29.74-37.73,27v.47c23.15-2.08,17.1,28.12,37,28,10.21,0,27.09.38,27.09.38Z" transform="translate(-129.04 -9.24)"/><path class="cls-3" d="M263.72,257.27l-1,0c-.16,0-15.7-.38-25.85-.38h-1.21c-10.06,0-13.88-7.24-17.56-14.23-3.77-7.16-7.34-13.92-17.18-13.92-.68,0-1.4,0-2.13.1l-1.11.1,0-2.68,1.1.13a23.23,23.23,0,0,0,2.71.17h0c9.41,0,13.09-6.53,17-13.44s7.91-14,18-13.74,26.89.38,27.06.38h1Zm-26.86-2.4c8.67,0,21.26.27,24.88.36l.74-53.51c-3.8,0-17.43-.1-26.11-.37s-12.38,6-16.15,12.72c-3.2,5.69-6.49,11.53-13.09,13.64,6.54,2.29,9.66,8.22,12.71,14,3.57,6.77,6.94,13.16,15.72,13.16Z" transform="translate(-129.04 -9.24)"/><path class="cls-2" d="M449.65,200.72s16.88-.06,27.09-.38c19.85-.62,14.64,29.74,37.73,27v.47c-23.15-2.08-17.1,28.12-37,28-10.21,0-27.09.38-27.09.38Z" transform="translate(-129.04 -9.24)"/><path class="cls-3" d="M449.44,257.27l-.8-57.55h1c.17,0,17-.06,27.06-.38s14.07,6.84,18,13.74,7.57,13.44,17,13.44a23.23,23.23,0,0,0,2.71-.17l1.1-.13,0,2.68-1.1-.1c-.73-.07-1.44-.1-2.13-.1-9.85,0-13.41,6.76-17.18,13.92-3.69,7-7.5,14.23-17.49,14.23h-1.29c-10.15,0-25.69.38-25.85.38Zm1.23-55.56.75,53.51c3.62-.08,16.22-.36,24.88-.36h1.22c8.85,0,12.22-6.4,15.79-13.17,3-5.78,6.17-11.71,12.71-14-6.6-2.11-9.89-8-13.09-13.64-3.77-6.69-7.31-13-16.15-12.72C468.1,201.61,454.46,201.7,450.67,201.71Z" transform="translate(-129.04 -9.24)"/><path class="cls-2" d="M310.26,143s-11.9-12-18.89-19.42C277.78,109.09,260,134.24,245.6,116l-.33.32c17.84,14.9-7.79,32,6.3,46,7.24,7.19,18.89,19.42,18.89,19.42Z" transform="translate(-129.04 -9.24)"/><path class="cls-3" d="M270.43,183.12l-.7-.73c-.12-.12-11.72-12.3-18.87-19.4s-4.7-14.91-2.36-22.49c2.56-8.25,5-16-3.88-23.43l-.85-.71,1.92-1.87.69.87c3.54,4.48,7.5,6.57,12.48,6.57h0c3.53,0,7.24-1,10.83-2s7.37-2.06,11-2.06a15,15,0,0,1,11.42,5c6.9,7.35,18.75,19.28,18.87,19.4l.71.72Zm-19.14-60.93c3,6.35,1,12.92-.87,18.91-2.27,7.33-4.42,14.25,1.85,20.48s15.58,16,18.21,18.71L308.84,143c-2.67-2.7-12.26-12.4-18.2-18.72a12.91,12.91,0,0,0-10-4.41c-3.35,0-6.8,1-10.46,2s-7.56,2.11-11.36,2.11h0A16.24,16.24,0,0,1,251.29,122.19Z" transform="translate(-129.04 -9.24)"/><path class="cls-2" d="M441.89,274.61s12,11.9,19.42,18.89c14.48,13.6-10.67,31.38,7.58,45.78l-.33.33c-14.9-17.84-32,7.79-46-6.3-7.19-7.24-19.42-18.89-19.42-18.89Z" transform="translate(-129.04 -9.24)"/><path class="cls-3" d="M468.5,341.09l-.71-.85c-3.55-4.25-7.41-6.23-12.17-6.23-3.69,0-7.54,1.19-11.26,2.35s-7.66,2.37-11.45,2.37a14.93,14.93,0,0,1-11-4.73c-7.1-7.15-19.28-18.75-19.4-18.87l-.73-.7,40.13-41.26.72.71c.12.12,12.05,12,19.4,18.87s5.12,14.78,3,22.41c-2.32,8.32-4.52,16.17,4.53,23.31l.87.69Zm-63.91-26.71c2.75,2.62,12.6,12.06,18.71,18.21a12.86,12.86,0,0,0,9.62,4.14c3.48,0,7.07-1.11,10.86-2.28s7.87-2.44,11.85-2.44a16.07,16.07,0,0,1,7.1,1.58c-3.22-6.27-1.37-12.91.32-19,2.07-7.39,4-14.37-2.42-20.42S444.6,278.7,441.9,276Z" transform="translate(-129.04 -9.24)"/><path class="cls-2" d="M271.27,274.61s-12,11.9-19.42,18.89c-14.48,13.6,10.67,31.38-7.58,45.78l.32.33c14.9-17.84,32,7.79,46-6.3,7.19-7.24,19.42-18.89,19.42-18.89Z" transform="translate(-129.04 -9.24)"/><path class="cls-3" d="M244.66,341.1l-1.87-1.92.87-.69c9.05-7.14,6.86-15,4.53-23.31-2.13-7.64-4.34-15.53,3-22.41s19.28-18.75,19.4-18.87l.72-.71,40.13,41.26-.73.7c-.12.12-12.3,11.72-19.4,18.87a14.93,14.93,0,0,1-11,4.73h0c-3.79,0-7.68-1.21-11.45-2.37S261.22,334,257.53,334c-4.75,0-8.62,2-12.17,6.23ZM257.53,332c4,0,8,1.24,11.85,2.44s7.37,2.28,10.86,2.29h0a12.85,12.85,0,0,0,9.62-4.14c6.11-6.15,16-15.58,18.71-18.21L271.26,276c-2.7,2.67-12.4,12.26-18.72,18.19s-4.49,13-2.42,20.42c1.69,6,3.55,12.69.32,19A16.08,16.08,0,0,1,257.53,332Z" transform="translate(-129.04 -9.24)"/><path class="cls-2" d="M402.9,143s11.9-12,18.89-19.42c13.6-14.48,31.38,10.67,45.78-7.58l.33.33c-17.84,14.9,7.79,32-6.3,46-7.24,7.19-18.89,19.42-18.89,19.42Z" transform="translate(-129.04 -9.24)"/><path class="cls-3" d="M442.73,183.12,401.47,143l.71-.72c.12-.12,12-12.06,18.87-19.4a15,15,0,0,1,11.42-5c3.62,0,7.37,1,11,2.06s7.3,2,10.83,2c5,0,8.95-2.09,12.48-6.57l.69-.87,1.92,1.87-.85.71c-8.85,7.39-6.44,15.18-3.88,23.43,2.35,7.57,4.77,15.41-2.35,22.49s-18.75,19.28-18.87,19.4ZM404.32,143l38.36,37.31c2.62-2.75,12.06-12.6,18.21-18.71s4.12-13.15,1.85-20.47c-1.85-6-3.89-12.56-.87-18.91a16.23,16.23,0,0,1-7.58,1.75c-3.8,0-7.65-1.07-11.36-2.11s-7.11-2-10.46-2a12.91,12.91,0,0,0-10,4.41C416.57,130.57,407,140.27,404.32,143Z" transform="translate(-129.04 -9.24)"/><ellipse class="cls-2" cx="228.24" cy="219.02" rx="116.98" ry="117.32"/><path class="cls-3" d="M357.28,346.58c-65.05,0-118-53.08-118-118.32s52.93-118.32,118-118.32,118,53.08,118,118.32S422.33,346.58,357.28,346.58Zm0-234.65c-64,0-116,52.18-116,116.32s52,116.32,116,116.32,116-52.18,116-116.32S421.23,111.93,357.28,111.93Z" transform="translate(-129.04 -9.24)"/><ellipse class="cls-2" cx="266.36" cy="127.86" rx="23.88" ry="24.91"/><path class="cls-3" d="M395.4,163c-13.72,0-24.88-11.62-24.88-25.9s11.16-25.91,24.88-25.91,24.87,11.62,24.87,25.91S409.12,163,395.4,163Zm0-49.81c-12.62,0-22.88,10.72-22.88,23.91S382.78,161,395.4,161s22.87-10.72,22.87-23.9S408,113.19,395.4,113.19Z" transform="translate(-129.04 -9.24)"/><path class="cls-2" d="M321.69,84.48a10.43,10.43,0,1,0-20.63,3c.86,5.94,13.23,18.72,13.23,18.72S322.55,90.42,321.69,84.48Z" transform="translate(-129.04 -9.24)"/><path class="cls-3" d="M314.53,107.86l-1-1c-.51-.53-12.61-13.08-13.5-19.28a11.67,11.67,0,0,1,9.61-13.38,11.16,11.16,0,0,1,1.58-.11,11.77,11.77,0,0,1,11.42,10.24c.89,6.19-7.17,21.65-7.51,22.3Z" transform="translate(-129.04 -9.24)"/><path class="cls-2" d="M291.5,92.72A10.43,10.43,0,1,0,276,106.67c4,4.46,21.41,8.2,21.41,8.2S295.52,97.18,291.5,92.72Z" transform="translate(-129.04 -9.24)"/><path class="cls-3" d="M298.56,116.14l-1.35-.29c-.72-.16-17.75-3.86-21.94-8.51a11.67,11.67,0,0,1,.55-16.47A11.17,11.17,0,0,1,283.3,88a12.07,12.07,0,0,1,8.94,4c4.18,4.65,6.09,22,6.17,22.71Z" transform="translate(-129.04 -9.24)"/><path class="cls-2" d="M391.52,84.48a10.43,10.43,0,1,1,20.63,3c-.86,5.94-13.23,18.72-13.23,18.72S390.66,90.42,391.52,84.48Z" transform="translate(-129.04 -9.24)"/><path class="cls-3" d="M398.68,107.86l-.64-1.23c-.34-.65-8.4-16.11-7.51-22.3A11.77,11.77,0,0,1,401.94,74.1a11.16,11.16,0,0,1,1.58.11,11.67,11.67,0,0,1,9.61,13.38c-.89,6.19-13,18.74-13.5,19.28Z" transform="translate(-129.04 -9.24)"/><path class="cls-2" d="M421.71,92.72a10.43,10.43,0,1,1,15.49,13.95c-4,4.46-21.41,8.2-21.41,8.2S417.69,97.18,421.71,92.72Z" transform="translate(-129.04 -9.24)"/><path class="cls-3" d="M414.65,116.14l.15-1.38c.08-.73,2-18.06,6.16-22.71a12.07,12.07,0,0,1,8.94-4,11.11,11.11,0,0,1,11.17,10.86,12,12,0,0,1-3.13,8.46c-4.19,4.65-21.22,8.35-21.94,8.51Z" transform="translate(-129.04 -9.24)"/><path class="cls-2" d="M321.69,375.7a10.43,10.43,0,1,1-20.63-3c.86-5.94,13.23-18.72,13.23-18.72S322.55,369.76,321.69,375.7Z" transform="translate(-129.04 -9.24)"/><path class="cls-3" d="M311.27,386.08a11.19,11.19,0,0,1-1.58-.11,11.67,11.67,0,0,1-9.61-13.38c.89-6.19,13-18.74,13.5-19.28l1-1,.64,1.22c.34.66,8.4,16.11,7.51,22.3A11.77,11.77,0,0,1,311.27,386.08Z" transform="translate(-129.04 -9.24)"/><path class="cls-2" d="M291.5,367.46A10.43,10.43,0,1,1,276,353.52c4-4.46,21.41-8.2,21.41-8.2S295.52,363,291.5,367.46Z" transform="translate(-129.04 -9.24)"/><path class="cls-3" d="M283.31,372.16a11.17,11.17,0,0,1-7.49-2.85,11.67,11.67,0,0,1-.55-16.46c4.19-4.65,21.22-8.35,21.94-8.51l1.35-.29-.15,1.38c-.08.74-2,18.06-6.17,22.71A12.07,12.07,0,0,1,283.31,372.16Z" transform="translate(-129.04 -9.24)"/><path class="cls-2" d="M391.52,375.7a10.43,10.43,0,1,0,20.63-3c-.86-5.94-13.23-18.72-13.23-18.72S390.66,369.76,391.52,375.7Z" transform="translate(-129.04 -9.24)"/><path class="cls-3" d="M401.94,386.08h0a11.77,11.77,0,0,1-11.42-10.24c-.89-6.19,7.17-21.65,7.51-22.3l.64-1.22,1,1c.51.53,12.6,13.08,13.5,19.28a12,12,0,0,1-2.1,8.77,11.11,11.11,0,0,1-9.09,4.72Z" transform="translate(-129.04 -9.24)"/><path class="cls-2" d="M421.71,367.46a10.43,10.43,0,1,0,15.49-13.95c-4-4.46-21.41-8.2-21.41-8.2S417.69,363,421.71,367.46Z" transform="translate(-129.04 -9.24)"/><path class="cls-3" d="M429.91,372.16h0a12.07,12.07,0,0,1-8.94-4c-4.18-4.65-6.09-22-6.16-22.71l-.15-1.37,1.35.29c.72.16,17.75,3.86,21.94,8.51a12,12,0,0,1,3.13,8.46,11.11,11.11,0,0,1-11.17,10.86Z" transform="translate(-129.04 -9.24)"/><path class="cls-2" d="M229,151.82a10.43,10.43,0,1,0-12.49,16.69c4.81,3.6,22.59,3.89,22.59,3.89S233.76,155.41,229,151.82Z" transform="translate(-129.04 -9.24)"/><path class="cls-3" d="M240.42,173.41l-1.38,0c-.74,0-18.16-.34-23.17-4.09a12,12,0,0,1-4.71-7.69,11.14,11.14,0,0,1,11.13-13,12.06,12.06,0,0,1,7.27,2.44c5,3.75,10.24,20.37,10.46,21.08Z" transform="translate(-129.04 -9.24)"/><path class="cls-2" d="M213.43,179a10.43,10.43,0,1,0-1.09,20.82c6,.31,20.94-9.34,20.94-9.34S219.43,179.31,213.43,179Z" transform="translate(-129.04 -9.24)"/><path class="cls-3" d="M212.63,200.81h-.35a11.43,11.43,0,1,1,1.2-22.81c6.25.33,19.84,11.23,20.42,11.7l1.08.87-1.16.75C233.22,191.7,219,200.81,212.63,200.81Z" transform="translate(-129.04 -9.24)"/><path class="cls-2" d="M484.26,308.37a10.43,10.43,0,1,0,12.49-16.69c-4.81-3.6-22.59-3.89-22.59-3.89S479.45,304.77,484.26,308.37Z" transform="translate(-129.04 -9.24)"/><path class="cls-3" d="M490.93,311.61h0a12.06,12.06,0,0,1-7.27-2.44c-5-3.75-10.24-20.37-10.46-21.08l-.41-1.32,1.38,0c.74,0,18.17.34,23.17,4.09a12,12,0,0,1,4.71,7.69,11.14,11.14,0,0,1-11.13,13Z" transform="translate(-129.04 -9.24)"/><path class="cls-2" d="M499.78,281.19a10.43,10.43,0,1,0,1.09-20.82c-6-.31-20.93,9.34-20.93,9.34S493.78,280.88,499.78,281.19Z" transform="translate(-129.04 -9.24)"/><path class="cls-3" d="M500.38,282.21h0l-.66,0c-6.25-.33-19.84-11.23-20.42-11.7l-1.08-.87,1.16-.75c.61-.4,15.35-9.81,21.53-9.5a12,12,0,0,1,8.19,3.77,11.13,11.13,0,0,1,3.06,8.26A11.62,11.62,0,0,1,500.38,282.21Z" transform="translate(-129.04 -9.24)"/><path class="cls-2" d="M229,308.37a10.43,10.43,0,1,1-12.49-16.69c4.81-3.6,22.59-3.89,22.59-3.89S233.76,304.77,229,308.37Z" transform="translate(-129.04 -9.24)"/><path class="cls-3" d="M222.28,311.61a11.21,11.21,0,0,1-9.08-4.47,11.67,11.67,0,0,1,2.66-16.26c5-3.75,22.43-4.07,23.17-4.09l1.38,0-.41,1.32c-.22.71-5.45,17.33-10.46,21.08A12.06,12.06,0,0,1,222.28,311.61Z" transform="translate(-129.04 -9.24)"/><path class="cls-2" d="M213.43,281.19a10.43,10.43,0,1,1-1.09-20.82c6-.31,20.94,9.34,20.94,9.34S219.43,280.88,213.43,281.19Z" transform="translate(-129.04 -9.24)"/><path class="cls-3" d="M212.83,282.21a11.42,11.42,0,1,1-.54-22.83c6.26-.32,20.92,9.1,21.53,9.5l1.16.75-1.08.87c-.58.46-14.17,11.37-20.42,11.7Z" transform="translate(-129.04 -9.24)"/><path class="cls-2" d="M484.26,151.82a10.43,10.43,0,1,1,12.49,16.69c-4.81,3.6-22.59,3.89-22.59,3.89S479.45,155.41,484.26,151.82Z" transform="translate(-129.04 -9.24)"/><path class="cls-3" d="M472.79,173.42l.41-1.32c.22-.71,5.45-17.33,10.46-21.08a12.06,12.06,0,0,1,7.27-2.44,11.14,11.14,0,0,1,11.13,13,12,12,0,0,1-4.71,7.69c-5,3.75-22.43,4.07-23.17,4.09Z" transform="translate(-129.04 -9.24)"/><path class="cls-2" d="M499.78,179a10.43,10.43,0,1,1,1.09,20.82c-6,.31-20.93-9.34-20.93-9.34S493.78,179.31,499.78,179Z" transform="translate(-129.04 -9.24)"/><path class="cls-3" d="M500.58,200.82c-6.4,0-20.58-9.12-21.18-9.51l-1.16-.75,1.08-.87c.58-.46,14.17-11.37,20.42-11.7a11.65,11.65,0,0,1,12.45,10.78,11.13,11.13,0,0,1-3.06,8.26,12,12,0,0,1-8.19,3.77Z" transform="translate(-129.04 -9.24)"/><ellipse class="cls-2" cx="188.78" cy="127.86" rx="23.88" ry="24.91"/><path class="cls-3" d="M317.82,163c-13.72,0-24.88-11.62-24.88-25.9s11.16-25.91,24.88-25.91,24.88,11.62,24.88,25.91S331.54,163,317.82,163Zm0-49.81c-12.61,0-22.88,10.72-22.88,23.91S305.2,161,317.82,161s22.88-10.72,22.88-23.9S330.43,113.19,317.82,113.19Z" transform="translate(-129.04 -9.24)"/><ellipse class="cls-2" cx="266.36" cy="311.17" rx="23.88" ry="24.91"/><path class="cls-3" d="M395.4,346.32c-13.72,0-24.88-11.62-24.88-25.91s11.16-25.91,24.88-25.91,24.87,11.62,24.87,25.91S409.12,346.32,395.4,346.32Zm0-49.81c-12.62,0-22.88,10.72-22.88,23.91s10.26,23.91,22.88,23.91,22.87-10.72,22.87-23.91S408,296.5,395.4,296.5Z" transform="translate(-129.04 -9.24)"/><ellipse class="cls-2" cx="188.78" cy="311.17" rx="23.88" ry="24.91"/><path class="cls-3" d="M317.82,346.32c-13.72,0-24.88-11.62-24.88-25.91s11.16-25.91,24.88-25.91,24.88,11.62,24.88,25.91S331.54,346.32,317.82,346.32Zm0-49.81c-12.61,0-22.88,10.72-22.88,23.91s10.26,23.91,22.88,23.91,22.88-10.72,22.88-23.91S330.43,296.5,317.82,296.5Z" transform="translate(-129.04 -9.24)"/><ellipse class="cls-2" cx="135.92" cy="180.73" rx="24.91" ry="23.88"/><path class="cls-3" d="M265,214.84C250.67,214.84,239,203.68,239,190s11.62-24.87,25.91-24.87,25.9,11.16,25.9,24.88S279.24,214.84,265,214.84Zm0-47.75C251.77,167.09,241,177.35,241,190s10.72,22.88,23.91,22.88,23.9-10.26,23.9-22.88S278.13,167.09,265,167.09Z" transform="translate(-129.04 -9.24)"/><ellipse class="cls-2" cx="135.92" cy="258.3" rx="24.91" ry="23.88"/><path class="cls-3" d="M265,292.42c-14.29,0-25.91-11.16-25.91-24.88s11.62-24.87,25.91-24.87,25.9,11.16,25.9,24.87S279.24,292.42,265,292.42Zm0-47.75c-13.18,0-23.91,10.26-23.91,22.88s10.72,22.88,23.91,22.88,23.9-10.26,23.9-22.88S278.13,244.67,265,244.67Z" transform="translate(-129.04 -9.24)"/><ellipse class="cls-2" cx="319.23" cy="180.73" rx="24.91" ry="23.88"/><path class="cls-3" d="M448.26,214.84c-14.29,0-25.91-11.16-25.91-24.88s11.62-24.87,25.91-24.87,25.91,11.16,25.91,24.88S462.55,214.84,448.26,214.84Zm0-47.75c-13.18,0-23.91,10.26-23.91,22.88s10.72,22.88,23.91,22.88,23.91-10.26,23.91-22.88S461.45,167.09,448.26,167.09Z" transform="translate(-129.04 -9.24)"/><ellipse class="cls-2" cx="319.23" cy="258.3" rx="24.91" ry="23.88"/><path class="cls-3" d="M448.26,292.42c-14.29,0-25.91-11.16-25.91-24.88s11.62-24.87,25.91-24.87,25.91,11.16,25.91,24.87S462.55,292.42,448.26,292.42Zm0-47.75c-13.18,0-23.91,10.26-23.91,22.88s10.72,22.88,23.91,22.88,23.91-10.26,23.91-22.88S461.45,244.67,448.26,244.67Z" transform="translate(-129.04 -9.24)"/><path class="cls-2" d="M380.45,171.46s0-14.3.32-22.94c.53-16.81-25.19-12.4-22.88-32h-.4c1.76,19.61-23.82,14.48-23.76,31.31,0,8.65-.32,22.94-.32,22.94Z" transform="translate(-129.04 -9.24)"/><path class="cls-3" d="M381.45,172.47l-49.05-.68,0-1c0-.14.35-14.38.32-22.91s6.16-11.86,12.14-15c6.42-3.38,12.49-6.58,11.62-16.21l-.1-1.11,2.61,0-.13,1.1c-1.13,9.6,4.84,13,11.17,16.52,5.89,3.32,12,6.75,11.72,15.35s-.32,22.77-.32,22.92Zm-47-2.65,45,.63c0-3.42.09-14.73.32-22,.23-7.39-5.08-10.38-10.7-13.54-4.55-2.56-9.54-5.37-11.48-10.83-2.1,5.4-7.16,8.07-11.78,10.51-5.71,3-11.1,5.85-11.07,13.24C334.77,155.09,334.52,166.4,334.45,169.82Z" transform="translate(-129.04 -9.24)"/><path class="cls-2" d="M380.45,284.63s0,14.3.32,22.94c.53,16.82-25.19,12.4-22.88,32h-.4c1.76-19.61-23.82-14.48-23.76-31.31,0-8.65-.32-22.94-.32-22.94Z" transform="translate(-129.04 -9.24)"/><path class="cls-3" d="M356.41,340.55l.1-1.1c.87-9.62-5.2-12.82-11.62-16.21-6-3.15-12.17-6.41-12.14-15s-.31-22.77-.32-22.92l0-1,49.05-.68v1c0,.14.05,14.39.32,22.92s-5.82,12-11.72,15.35c-6.33,3.56-12.3,6.93-11.17,16.52l.13,1.1Zm-22-54.28c.08,3.42.32,14.73.3,22,0,7.39,5.36,10.23,11.07,13.24,4.62,2.43,9.68,5.1,11.78,10.51,1.95-5.46,6.93-8.27,11.48-10.83C374.7,318,380,315,379.77,307.61c-.23-7.23-.3-18.54-.32-22Z" transform="translate(-129.04 -9.24)"/><path class="cls-2" d="M300.51,204.69s-14.3-.05-22.94-.32c-16.81-.53-12.4,25.19-32,22.88v.4c19.61-1.76,14.48,23.82,31.31,23.76,8.65,0,22.94.32,22.94.32Z" transform="translate(-129.04 -9.24)"/><path class="cls-3" d="M300.85,252.75l-1,0c-.13,0-13.25-.32-21.85-.32h-1.07c-8.62,0-11.87-6.17-15-12.14s-6.17-11.71-14.42-11.71c-.57,0-1.18,0-1.79.08l-1.11.1,0-2.61,1.1.13a19.43,19.43,0,0,0,2.28.14c7.88,0,11-5.49,14.25-11.31s6.77-12,15.35-11.72,22.77.32,22.92.32h1ZM278,250.4c7.22,0,17.63.22,20.88.3l.63-45c-3.42,0-14.73-.09-22-.32s-10.37,5.07-13.54,10.7c-2.55,4.53-5.37,9.53-10.82,11.48,5.4,2.1,8.08,7.18,10.5,11.78,3,5.69,5.83,11.07,13.18,11.07Z" transform="translate(-129.04 -9.24)"/><path class="cls-2" d="M413.69,204.69s14.3-.05,22.94-.32c16.82-.53,12.4,25.19,32,22.88v.4c-19.61-1.76-14.48,23.82-31.31,23.76-8.64,0-22.94.32-22.94.32Z" transform="translate(-129.04 -9.24)"/><path class="cls-3" d="M413.36,252.75l-.68-49.05h1c.14,0,14.39-.05,22.92-.32s12,5.83,15.35,11.72,6.37,11.31,14.25,11.31a19.43,19.43,0,0,0,2.28-.14l1.1-.13,0,2.61-1.11-.1c-.61-.06-1.21-.08-1.79-.08-8.25,0-11.25,5.69-14.42,11.71s-6.4,12.14-15,12.14h-1.13c-8.59,0-21.71.32-21.85.32Zm1.35-47.06.63,45c3.25-.07,13.66-.3,20.88-.3h1.08c7.4,0,10.24-5.38,13.24-11.07,2.43-4.6,5.1-9.68,10.5-11.78-5.46-2-8.27-7-10.82-11.48-3.17-5.63-6.17-10.93-13.54-10.7S418.12,205.67,414.7,205.69Z" transform="translate(-129.04 -9.24)"/><path class="cls-2" d="M333.6,171.52s-10.08-10.15-16-16.45c-11.52-12.26-26.58,9-38.77-6.42l-.28.27c15.11,12.62-6.6,27.08,5.34,38.94,6.13,6.09,16,16.45,16,16.45Z" transform="translate(-129.04 -9.24)"/><path class="cls-3" d="M299.85,205.73l-.7-.73c-.1-.1-9.92-10.42-16-16.43s-4-12.74-2-19.2c2.15-6.94,4.18-13.49-3.24-19.68l-.85-.71,1.88-1.82.69.87c3,3.76,6.29,5.51,10.45,5.51h0a35.21,35.21,0,0,0,9.13-1.72,35.78,35.78,0,0,1,9.35-1.75,12.83,12.83,0,0,1,9.78,4.32c5.84,6.22,15.88,16.33,16,16.43l.71.72ZM284,154.21c2.34,5.3.64,10.77-.9,15.76-1.91,6.16-3.71,12,1.53,17.19s13,13.27,15.32,15.74l32.27-31.39c-2.4-2.43-10.35-10.48-15.31-15.75a10.79,10.79,0,0,0-8.32-3.69,33.81,33.81,0,0,0-8.82,1.68,36.66,36.66,0,0,1-9.67,1.8h0A14,14,0,0,1,284,154.21Z" transform="translate(-129.04 -9.24)"/><path class="cls-2" d="M413.63,251.55s10.15,10.08,16.45,16c12.26,11.52-9,26.58,6.42,38.77l-.28.28c-12.62-15.11-27.08,6.6-38.94-5.34-6.09-6.13-16.45-16-16.45-16Z" transform="translate(-129.04 -9.24)"/><path class="cls-3" d="M436.16,308.09l-.71-.85c-3-3.56-6.21-5.22-10.19-5.22-3.1,0-6.35,1-9.49,2s-6.51,2-9.74,2a12.8,12.8,0,0,1-9.46-4.05c-6-6.05-16.32-15.88-16.43-16l-.73-.7,34.2-35.17.72.71c.1.1,10.21,10.13,16.43,16s4.39,12.62,2.57,19.13c-2,7-3.8,13.6,3.79,19.58l.87.69Zm-53.91-22.85c2.47,2.36,10.64,10.19,15.74,15.32a10.74,10.74,0,0,0,8,3.46c2.93,0,6-.94,9.15-1.93s6.68-2.07,10.08-2.07a13.83,13.83,0,0,1,5.67,1.17c-2.48-5.24-.94-10.75.46-15.77,1.74-6.21,3.38-12.08-2-17.14s-13.32-12.9-15.75-15.3Z" transform="translate(-129.04 -9.24)"/><path class="cls-2" d="M300.58,251.54s-10.15,10.08-16.45,16c-12.26,11.52,9,26.58-6.42,38.77l.28.28c12.62-15.11,27.08,6.6,38.94-5.34,6.09-6.14,16.45-16,16.45-16Z" transform="translate(-129.04 -9.24)"/><path class="cls-3" d="M278,308.09l-1.82-1.87.87-.69c7.59-6,5.74-12.59,3.79-19.58-1.82-6.51-3.7-13.25,2.57-19.13s16.33-15.88,16.43-16l.72-.71,34.2,35.17-.73.7c-.1.1-10.41,9.92-16.43,16a12.79,12.79,0,0,1-9.46,4.05h0c-3.23,0-6.54-1-9.74-2s-6.4-2-9.49-2c-4,0-7.21,1.66-10.19,5.22Zm10.9-8.07c3.4,0,6.8,1.05,10.09,2.07s6.22,1.93,9.15,1.93a10.74,10.74,0,0,0,8-3.46c5.1-5.13,13.27-13,15.74-15.32L300.56,253c-2.43,2.4-10.48,10.35-15.75,15.31s-3.75,10.93-2,17.14c1.41,5,2.95,10.54.46,15.77A13.82,13.82,0,0,1,288.94,300Z" transform="translate(-129.04 -9.24)"/><path class="cls-2" d="M380.6,171.52s10.08-10.15,16-16.45c11.52-12.26,26.58,9,38.77-6.42l.28.28c-15.11,12.62,6.6,27.08-5.34,38.94-6.13,6.09-16,16.45-16,16.45Z" transform="translate(-129.04 -9.24)"/><path class="cls-3" d="M414.35,205.73l-35.17-34.2.71-.72c.1-.1,10.14-10.21,16-16.43a12.83,12.83,0,0,1,9.78-4.32,35.75,35.75,0,0,1,9.35,1.75,35.18,35.18,0,0,0,9.13,1.72c4.17,0,7.49-1.75,10.45-5.51l.69-.87,1.87,1.82-.85.71c-7.42,6.19-5.39,12.75-3.24,19.68,2,6.46,4.07,13.14-2,19.2S415.15,204.9,415,205ZM382,171.51l32.27,31.39c2.36-2.47,10.19-10.64,15.32-15.74s3.44-11,1.53-17.19c-1.55-5-3.24-10.45-.9-15.76a14,14,0,0,1-6.11,1.33,36.62,36.62,0,0,1-9.67-1.8,33.81,33.81,0,0,0-8.82-1.68,10.79,10.79,0,0,0-8.33,3.69C392.38,161,384.43,169.08,382,171.51Z" transform="translate(-129.04 -9.24)"/><path class="cls-2" d="M400.84,185.57s10-38.17-2.34-56.27l-.47-.17c-21.15,5.66-38.51,41.09-38.51,41.09Z" transform="translate(-129.04 -9.24)"/><path class="cls-3" d="M401.52,186.89l-43.39-16.12.49-1A140.5,140.5,0,0,1,370,151.21c9.41-12.88,18.74-20.63,27.74-23l.31-.08,1.07.4.18.26c5.24,7.7,7.24,19.66,6,35.56a140.77,140.77,0,0,1-3.48,21.52Zm-40.6-17.22,39.21,14.57c1.47-6.25,8.23-38.08-2.23-54C379.55,135.46,363.89,164,360.92,169.67Z" transform="translate(-129.04 -9.24)"/><path class="cls-2" d="M313.4,185.57s-10-38.17,2.34-56.27l.47-.17c21.15,5.66,38.51,41.09,38.51,41.09Z" transform="translate(-129.04 -9.24)"/><path class="cls-3" d="M312.71,186.89l-.28-1.07A140.59,140.59,0,0,1,309,164.3c-1.29-15.9.72-27.86,6-35.56l.18-.26,1.07-.4.31.08c9,2.41,18.33,10.16,27.74,23a140.48,140.48,0,0,1,11.42,18.57l.49,1Zm3.62-56.69c-10.46,16-3.7,47.79-2.23,54l39.21-14.57C350.35,164,334.68,135.46,316.34,130.2Z" transform="translate(-129.04 -9.24)"/><path class="cls-2" d="M400.84,270.44s10,38.17-2.34,56.27l-.47.17c-21.15-5.66-38.51-41.08-38.51-41.08Z" transform="translate(-129.04 -9.24)"/><path class="cls-3" d="M398.08,327.92l-.31-.08c-9-2.41-18.33-10.16-27.74-23a140.56,140.56,0,0,1-11.42-18.57l-.49-1,43.39-16.12.28,1.07a140.81,140.81,0,0,1,3.48,21.52c1.29,15.9-.72,27.86-6,35.56l-.18.26Zm-37.16-41.59c3,5.69,18.64,34.21,37,39.46,10.46-16,3.7-47.79,2.23-54Z" transform="translate(-129.04 -9.24)"/><path class="cls-2" d="M313.4,270.44s-10,38.17,2.34,56.27l.47.17c21.15-5.66,38.51-41.08,38.51-41.08Z" transform="translate(-129.04 -9.24)"/><path class="cls-3" d="M316.16,327.92l-1.07-.39-.18-.26c-5.24-7.7-7.24-19.66-6-35.56a140.63,140.63,0,0,1,3.48-21.52l.28-1.07,43.39,16.12-.49,1A140.53,140.53,0,0,1,344.2,304.8c-9.41,12.88-18.74,20.63-27.74,23Zm-2.05-56.16c-1.47,6.25-8.23,38.08,2.23,54,18.34-5.25,34-33.77,37-39.46Z" transform="translate(-129.04 -9.24)"/><path class="cls-2" d="M314.68,184.29s-38.17-10-56.27,2.34l-.17.47c5.66,21.15,41.09,38.51,41.09,38.51Z" transform="translate(-129.04 -9.24)"/><path class="cls-3" d="M299.88,227l-1-.49a140.56,140.56,0,0,1-18.57-11.42c-12.88-9.41-20.63-18.74-23-27.73l-.08-.31.4-1.07.26-.18c6.17-4.2,15.19-6.33,26.81-6.33a137.12,137.12,0,0,1,30.27,3.85l1.07.28Zm-40.56-39.76c5.25,18.34,33.77,34,39.47,37L313.36,185a134.83,134.83,0,0,0-28.69-3.52C273.67,181.47,265.14,183.4,259.32,187.22Z" transform="translate(-129.04 -9.24)"/><path class="cls-2" d="M314.68,271.72s-38.17,10-56.27-2.34l-.17-.47c5.66-21.15,41.09-38.51,41.09-38.51Z" transform="translate(-129.04 -9.24)"/><path class="cls-3" d="M284.67,276.54c-11.62,0-20.64-2.13-26.81-6.33l-.26-.18-.4-1.07.08-.31c2.41-9,10.16-18.33,23-27.73a140.6,140.6,0,0,1,18.57-11.42l1-.49L316,272.41l-1.07.28A137.18,137.18,0,0,1,284.67,276.54Zm-25.35-7.75c5.82,3.82,14.35,5.75,25.35,5.75A134.76,134.76,0,0,0,313.36,271l-14.57-39.21C293.09,234.78,264.57,250.44,259.32,268.78Z" transform="translate(-129.04 -9.24)"/><path class="cls-2" d="M399.55,184.29s38.17-10,56.27,2.34l.17.47c-5.66,21.15-41.09,38.51-41.09,38.51Z" transform="translate(-129.04 -9.24)"/><path class="cls-3" d="M414.35,227,398.23,183.6l1.07-.28a137.12,137.12,0,0,1,30.27-3.85c11.62,0,20.64,2.13,26.81,6.33l.26.18L457,187l-.08.31c-2.41,9-10.16,18.33-23,27.73a140.61,140.61,0,0,1-18.57,11.42Zm-13.47-42,14.57,39.21c5.69-3,34.21-18.64,39.47-37-5.82-3.82-14.35-5.75-25.35-5.75A134.81,134.81,0,0,0,400.88,185Z" transform="translate(-129.04 -9.24)"/><path class="cls-2" d="M399.55,271.72s38.17,10,56.27-2.34l.17-.47c-5.66-21.15-41.09-38.51-41.09-38.51Z" transform="translate(-129.04 -9.24)"/><path class="cls-3" d="M429.57,276.54h0a137.19,137.19,0,0,1-30.27-3.85l-1.07-.28L414.35,229l1,.49a140.64,140.64,0,0,1,18.57,11.42c12.88,9.41,20.63,18.74,23,27.73l.08.31-.39,1.07-.26.18C450.21,274.41,441.19,276.54,429.57,276.54ZM400.88,271a134.82,134.82,0,0,0,28.69,3.52h0c11,0,19.52-1.93,25.34-5.75-5.25-18.34-33.77-34-39.47-37Z" transform="translate(-129.04 -9.24)"/><ellipse class="cls-2" cx="228.24" cy="219.02" rx="58.49" ry="58.66"/><path class="cls-3" d="M357.28,287.92a59.66,59.66,0,1,1,59.49-59.66A59.64,59.64,0,0,1,357.28,287.92Zm0-117.32a57.66,57.66,0,1,0,57.49,57.66A57.64,57.64,0,0,0,357.28,170.6Z" transform="translate(-129.04 -9.24)"/><path class="cls-2" d="M378.87,248.63s35.93-3.82,47.44-20.24v-.46c-11.71-16.28-47.68-19.67-47.68-19.67Z" transform="translate(-129.04 -9.24)"/><path class="cls-3" d="M377.88,249.74l-.25-42.58,1.1.1c1.49.14,36.57,3.62,48.4,20.09l.19.26v1.1l-.18.26c-11.64,16.6-46.67,20.5-48.16,20.66Zm1.76-40.36.23,38.12c6-.8,35.14-5.34,45.38-19.33C414.84,214.29,385.68,210.1,379.64,209.37Z" transform="translate(-129.04 -9.24)"/><path class="cls-2" d="M379.8,241.38s8.13,0,13,.18c9.56.3,7-14.31,18.16-13v-.22c-11.14,1-8.23-13.54-17.79-13.5-4.91,0-13-.18-13-.18Z" transform="translate(-129.04 -9.24)"/><path class="cls-3" d="M393.12,242.56h-.32c-4.84-.15-12.93-.18-13-.18h-1l.4-28.75,1,0c.07,0,7.51.18,12.39.18h.62c5.16,0,7.15,3.79,8.91,7.13,1.94,3.69,3.63,6.84,8.79,6.38l1.11-.1-.05,2.44-1.09-.13a10.64,10.64,0,0,0-1.24-.08c-4.23,0-5.84,2.88-7.72,6.21S398,242.56,393.12,242.56Zm-12.31-2.18c2.34,0,8.21.06,12.06.18h.25c3.75,0,5.28-2.72,7.05-5.86,1.34-2.38,2.81-5,5.45-6.33-2.6-1.41-4-4.06-5.27-6.48-1.71-3.25-3.19-6.06-7.11-6.06h-.66c-3.83,0-9.21-.11-11.43-.16Z" transform="translate(-129.04 -9.24)"/><path class="cls-2" d="M336,248.63s-35.94-3.82-47.45-20.24v-.46c11.71-16.28,47.68-19.67,47.68-19.67Z" transform="translate(-129.04 -9.24)"/><path class="cls-3" d="M337,249.74l-1.1-.12c-1.49-.16-36.52-4.06-48.16-20.66l-.18-.26v-1.1l.19-.26c11.83-16.46,46.91-19.95,48.4-20.09l1.1-.1Zm-47.37-21.57c10.24,14,39.35,18.53,45.38,19.33l.23-38.12C329.19,210.1,300,214.3,289.62,228.16Z" transform="translate(-129.04 -9.24)"/><path class="cls-2" d="M335.08,241.38s-8.13,0-13,.18c-9.56.3-7-14.31-18.16-13v-.22c11.14,1,8.23-13.54,17.79-13.5,4.91,0,13-.18,13-.18Z" transform="translate(-129.04 -9.24)"/><path class="cls-3" d="M321.75,242.56c-4.92,0-7-3.66-8.79-6.88s-3.49-6.21-7.72-6.21a10.64,10.64,0,0,0-1.24.08l-1.1.13,0-2.44,1.11.1c5.16.46,6.85-2.69,8.79-6.38,1.76-3.34,3.76-7.13,8.88-7.13h.66c4.88,0,12.31-.18,12.39-.18l1,0,.4,28.75h-1c-.08,0-8.17,0-13,.18Zm-12.5-14.19c2.63,1.34,4.1,3.94,5.45,6.33,1.77,3.15,3.3,5.86,7.05,5.86H322c3.85-.12,9.72-.16,12.06-.18l-.34-24.71c-2.21,0-7.6.16-11.43.16h-.63c-3.94,0-5.42,2.81-7.14,6.06C313.25,224.32,311.85,227,309.25,228.37Z" transform="translate(-129.04 -9.24)"/><path class="cls-2" d="M377.62,207s-3.82-35.94-20.24-47.45h-.46c-16.28,11.71-19.67,47.68-19.67,47.68Z" transform="translate(-129.04 -9.24)"/><path class="cls-3" d="M336.15,208.25l.1-1.1c.14-1.49,3.63-36.57,20.09-48.4l.26-.19h1.09l.26.18c16.6,11.64,20.5,46.67,20.66,48.16l.12,1.1Zm21-47.62C343.29,171,339.1,200.2,338.37,206.24l38.12-.23C375.69,200,371.15,170.87,357.16,160.63Z" transform="translate(-129.04 -9.24)"/><path class="cls-2" d="M370.37,206.08s0-8.13.18-13c.3-9.56-14.31-7-13-18.16h-.22c1,11.14-13.54,8.23-13.5,17.79,0,4.91-.18,13-.18,13Z" transform="translate(-129.04 -9.24)"/><path class="cls-3" d="M371.37,207.09l-28.75-.4,0-1c0-.08.2-8.17.18-13,0-5.15,3.78-7.15,7.13-8.92,3.67-1.94,6.84-3.61,6.38-8.79l-.1-1.11,2.44,0-.13,1.1c-.61,5.17,2.51,6.93,6.13,9,3.3,1.86,7,4,6.88,9.11-.15,4.84-.18,12.93-.18,13Zm-26.7-2.37,24.71.34c0-2.34.06-8.21.18-12.06s-2.65-5.5-5.86-7.3c-2.4-1.35-5-2.81-6.33-5.44-1.41,2.58-4,4-6.48,5.26-3.26,1.72-6.07,3.2-6.06,7.14S344.72,202.39,344.67,204.72Z" transform="translate(-129.04 -9.24)"/><path class="cls-2" d="M377.62,249.62s-3.82,35.94-20.24,47.45h-.46c-16.28-11.71-19.67-47.69-19.67-47.69Z" transform="translate(-129.04 -9.24)"/><path class="cls-3" d="M357.69,298.07H356.6l-.26-.19C339.88,286,336.39,251,336.25,249.47l-.1-1.1,42.58.25-.12,1.1c-.16,1.49-4.06,36.52-20.66,48.16Zm-19.33-47.68c.73,6,4.92,35.21,18.79,45.61,14-10.24,18.53-39.35,19.33-45.38Z" transform="translate(-129.04 -9.24)"/><path class="cls-2" d="M370.37,250.54s0,8.13.18,13c.3,9.56-14.31,7-13,18.16h-.22c1-11.14-13.54-8.23-13.5-17.79,0-4.91-.18-13-.18-13Z" transform="translate(-129.04 -9.24)"/><path class="cls-3" d="M356.23,282.76l.1-1.1c.47-5.18-2.71-6.85-6.38-8.79-3.35-1.77-7.15-3.77-7.13-8.92,0-4.84-.18-12.93-.18-13l0-1,28.75-.4v1c0,.08,0,8.17.18,13,.16,5.15-3.58,7.25-6.88,9.11-3.62,2-6.74,3.8-6.13,9l.13,1.1ZM344.67,251.9c.05,2.34.17,8.21.16,12.05s2.8,5.42,6.06,7.14c2.43,1.28,5.07,2.67,6.48,5.26,1.33-2.62,3.93-4.09,6.33-5.44,3.21-1.81,6-3.37,5.86-7.31s-.16-9.72-.18-12.06Z" transform="translate(-129.04 -9.24)"/><path class="cls-2" d="M357.53,255.76s-27.35,22.37-46.68,19.09l-.32-.31c-3.28-19.33,19.08-46.68,19.08-46.68Z" transform="translate(-129.04 -9.24)"/><path class="cls-3" d="M314.91,276.17a25.45,25.45,0,0,1-4.23-.34l-.31-.05-.77-.76-.05-.32c-1.4-8.25,1.43-18.76,8.43-31.24a126,126,0,0,1,10.87-16.24l.7-.86L359,255.83l-.86.7a125.37,125.37,0,0,1-14.36,9.8C332.64,272.86,322.92,276.17,314.91,276.17Zm-3.46-2.25a23.7,23.7,0,0,0,3.46.25c16.3,0,36.69-15.08,41.12-18.5l-26.32-26.32C326,234.1,309,257.2,311.45,273.93Z" transform="translate(-129.04 -9.24)"/><path class="cls-2" d="M357.32,200.55s27.35-22.37,46.68-19.09l.31.32c3.28,19.33-19.08,46.68-19.08,46.68Z" transform="translate(-129.04 -9.24)"/><path class="cls-3" d="M385.31,230l-29.48-29.47.86-.7A125.24,125.24,0,0,1,371,190c11.17-6.53,20.89-9.85,28.9-9.85a25.37,25.37,0,0,1,4.23.34l.32.05.76.77.05.31c1.4,8.25-1.43,18.76-8.42,31.25A126,126,0,0,1,386,229.1Zm-26.49-29.31L385.14,227c3.67-4.74,20.74-27.85,18.25-44.58a23.73,23.73,0,0,0-3.46-.25C383.64,182.14,363.24,197.22,358.82,200.64Z" transform="translate(-129.04 -9.24)"/><path class="cls-2" d="M357.53,200.55s-27.35-22.37-46.68-19.09l-.32.32c-3.28,19.33,19.08,46.68,19.08,46.68Z" transform="translate(-129.04 -9.24)"/><path class="cls-3" d="M329.54,230l-.7-.86A126,126,0,0,1,318,212.86c-7-12.49-9.82-23-8.43-31.25l.05-.31.77-.77.31-.05a25.36,25.36,0,0,1,4.23-.34c8,0,17.73,3.31,28.89,9.85a125.31,125.31,0,0,1,14.36,9.8l.86.7Zm-18.09-47.57C309,199.12,326,222.22,329.71,227L356,200.64c-4.42-3.43-24.82-18.51-41.12-18.51A23.76,23.76,0,0,0,311.45,182.38Z" transform="translate(-129.04 -9.24)"/><path class="cls-2" d="M352.51,204.47s-5.73-5.77-9.09-9.35c-6.55-7-15.11,5.14-22-3.65l-.16.16c8.59,7.17-3.75,15.39,3,22.13,3.49,3.46,9.09,9.35,9.09,9.35Z" transform="translate(-129.04 -9.24)"/><path class="cls-3" d="M333.32,224.52l-.7-.73c-.06-.06-5.63-5.91-9.07-9.33-3.65-3.63-2.38-7.73-1.26-11.35,1.23-4,2.29-7.39-1.71-10.72l-.85-.71,1.75-1.7.69.87a6.81,6.81,0,0,0,5.6,3h0a19.72,19.72,0,0,0,5.07-1,20.64,20.64,0,0,1,5.43-1,7.7,7.7,0,0,1,5.87,2.59c3.32,3.53,9,9.27,9.07,9.33l.71.72Zm-8.26-29.12c.84,2.83,0,5.68-.86,8.31-1.09,3.52-2,6.56.76,9.33s6.8,6.95,8.41,8.64l17.72-17.23c-1.64-1.66-5.76-5.85-8.4-8.65a5.72,5.72,0,0,0-4.42-2,18.9,18.9,0,0,0-4.89.94,21.17,21.17,0,0,1-5.61,1h0A8.61,8.61,0,0,1,325.06,195.4Z" transform="translate(-129.04 -9.24)"/><path class="cls-2" d="M361.24,212.83S340.71,195.34,326.61,197l-.23.22c-2,14.06,15,35,15,35Z" transform="translate(-129.04 -9.24)"/><path class="cls-3" d="M341.29,233.69l-.69-.85c-.7-.87-17.23-21.46-15.21-35.78l0-.34.71-.69.34,0a17.73,17.73,0,0,1,2.05-.12c14.17,0,32.57,15.53,33.34,16.19l.83.71Zm-14-35.77c-1.21,11.86,11.12,28.8,14.17,32.79l18.26-17.82c-3.78-3-19.41-15-31.2-15C328.13,197.87,327.71,197.89,327.31,197.92Z" transform="translate(-129.04 -9.24)"/><path class="cls-2" d="M352.51,251.94s-5.73,5.77-9.09,9.35c-6.55,7-15.11-5.14-22,3.65l-.16-.16c8.59-7.17-3.75-15.39,3-22.12,3.49-3.46,9.09-9.35,9.09-9.35Z" transform="translate(-129.04 -9.24)"/><path class="cls-3" d="M321.48,266.43l-1.74-1.71.85-.71c4-3.33,2.93-6.76,1.71-10.72-1.12-3.62-2.39-7.72,1.26-11.34,3.44-3.41,9-9.27,9.07-9.33l.7-.73,20.61,20-.71.72c-.06.06-5.76,5.8-9.07,9.33a7.7,7.7,0,0,1-5.87,2.59,20.64,20.64,0,0,1-5.43-1,19.68,19.68,0,0,0-5.07-1,6.81,6.81,0,0,0-5.6,3Zm6.29-5.84a21.13,21.13,0,0,1,5.61,1,18.9,18.9,0,0,0,4.89.94,5.73,5.73,0,0,0,4.42-2c2.63-2.8,6.76-7,8.4-8.65l-17.72-17.23c-1.62,1.69-5.68,5.93-8.41,8.64s-1.85,5.81-.76,9.33c.81,2.63,1.7,5.49.86,8.31A8.62,8.62,0,0,1,327.77,260.58Z" transform="translate(-129.04 -9.24)"/><path class="cls-2" d="M361.24,243.57s-20.53,17.49-34.63,15.84l-.23-.22c-2-14.06,15-35,15-35Z" transform="translate(-129.04 -9.24)"/><path class="cls-3" d="M328.55,260.53a17.78,17.78,0,0,1-2.05-.12l-.34,0-.71-.69,0-.34c-2-14.32,14.5-34.91,15.21-35.78l.69-.85,21.43,20.92-.83.71C361.12,245,342.72,260.53,328.55,260.53Zm-1.24-2c.4,0,.82,0,1.24,0,11.78,0,27.41-12,31.2-15l-18.26-17.82C338.42,229.68,326.1,246.62,327.31,258.48Z" transform="translate(-129.04 -9.24)"/><path class="cls-2" d="M362.3,204.47s5.73-5.77,9.09-9.35c6.55-7,15.11,5.14,22-3.65l.16.16c-8.59,7.17,3.75,15.39-3,22.13-3.49,3.46-9.09,9.35-9.09,9.35Z" transform="translate(-129.04 -9.24)"/><path class="cls-3" d="M381.49,224.52l-20.61-20,.71-.72c.06-.06,5.76-5.8,9.07-9.33a7.7,7.7,0,0,1,5.87-2.59,20.65,20.65,0,0,1,5.43,1,19.69,19.69,0,0,0,5.07,1,6.81,6.81,0,0,0,5.6-3l.68-.87,1.76,1.69-.86.72c-4,3.34-2.93,6.76-1.71,10.73,1.12,3.62,2.39,7.72-1.26,11.34-3.44,3.41-9,9.27-9.07,9.33Zm-17.77-20.07,17.72,17.23c1.62-1.69,5.68-5.92,8.41-8.64s1.85-5.81.76-9.33c-.81-2.63-1.7-5.49-.86-8.31a8.62,8.62,0,0,1-2.71.42,21.14,21.14,0,0,1-5.61-1,18.9,18.9,0,0,0-4.89-.94,5.73,5.73,0,0,0-4.42,2C369.49,198.61,365.37,202.79,363.72,204.45Z" transform="translate(-129.04 -9.24)"/><path class="cls-2" d="M353.57,212.83S374.1,195.34,388.2,197l.22.22c2,14.06-15,35-15,35Z" transform="translate(-129.04 -9.24)"/><path class="cls-3" d="M373.52,233.69l-21.43-20.91.83-.71c.78-.66,19.17-16.19,33.34-16.19a17.74,17.74,0,0,1,2.05.12l.34,0,.71.7,0,.34c2,14.32-14.5,34.91-15.21,35.78Zm-18.45-20.8,18.26,17.82c3.06-4,15.38-20.93,14.17-32.79-.4,0-.82,0-1.24,0C374.47,197.87,358.85,209.85,355.07,212.89Z" transform="translate(-129.04 -9.24)"/><path class="cls-2" d="M357.32,255.76s27.35,22.37,46.68,19.09l.31-.31c3.28-19.33-19.08-46.68-19.08-46.68Z" transform="translate(-129.04 -9.24)"/><path class="cls-3" d="M399.94,276.17h0c-8,0-17.73-3.31-28.89-9.85a125.31,125.31,0,0,1-14.36-9.8l-.86-.7,29.48-29.47.7.86a126,126,0,0,1,10.87,16.24c7,12.48,9.82,23,8.42,31.24l-.05.31-.77.77-.31.05A25.41,25.41,0,0,1,399.94,276.17Zm-41.12-20.5c4.42,3.43,24.82,18.5,41.12,18.5h0a23.64,23.64,0,0,0,3.46-.25c2.48-16.74-14.58-39.83-18.25-44.58Z" transform="translate(-129.04 -9.24)"/><path class="cls-2" d="M362.3,251.94s5.73,5.77,9.09,9.35c6.55,7,15.11-5.14,22,3.65l.16-.16c-8.59-7.17,3.75-15.39-3-22.12-3.49-3.46-9.09-9.35-9.09-9.35Z" transform="translate(-129.04 -9.24)"/><path class="cls-3" d="M393.33,266.42l-.69-.87a6.81,6.81,0,0,0-5.6-3,19.67,19.67,0,0,0-5.07,1,20.64,20.64,0,0,1-5.43,1h0a7.7,7.7,0,0,1-5.87-2.59c-3.32-3.53-9-9.27-9.07-9.33l-.71-.72,20.61-20,.7.73c.06.06,5.63,5.92,9.07,9.33,3.65,3.63,2.38,7.73,1.26,11.34-1.23,4-2.29,7.39,1.71,10.72l.85.71Zm-29.61-14.47c1.64,1.66,5.76,5.84,8.4,8.65a5.73,5.73,0,0,0,4.42,2h0a18.9,18.9,0,0,0,4.89-.94,21.12,21.12,0,0,1,5.61-1,8.62,8.62,0,0,1,2.71.42c-.84-2.83,0-5.68.86-8.31,1.09-3.52,2-6.56-.76-9.33s-6.8-6.95-8.41-8.64Z" transform="translate(-129.04 -9.24)"/><path class="cls-2" d="M353.57,243.57s20.53,17.49,34.63,15.84l.22-.22c2-14.06-15-35-15-35Z" transform="translate(-129.04 -9.24)"/><path class="cls-3" d="M386.27,260.53h0c-14.17,0-32.57-15.53-33.34-16.19l-.83-.71,21.43-20.92.69.85c.7.87,17.23,21.46,15.21,35.78l0,.34-.71.69-.34,0A17.77,17.77,0,0,1,386.27,260.53Zm-31.2-17c3.78,3,19.41,15,31.2,15h0c.42,0,.84,0,1.24,0,1.21-11.86-11.12-28.8-14.17-32.79Z" transform="translate(-129.04 -9.24)"/><path class="cls-2" d="M361.34,244s3.82,3.77,6.06,6.12c4.37,4.56,9.95-3.49,14.58,2.27l.11-.1c-5.72-4.68,2.38-10.19-2.14-14.6-2.33-2.27-6.06-6.12-6.06-6.12Z" transform="translate(-129.04 -9.24)"/><path class="cls-3" d="M381.88,253.91l-.69-.85a4.13,4.13,0,0,0-3.4-1.8,12.31,12.31,0,0,0-3.3.65,13.68,13.68,0,0,1-3.73.71h0a5.41,5.41,0,0,1-4.08-1.78c-2.21-2.31-6-6.06-6-6.1l-.72-.71,14-13.85.7.73s3.75,3.87,6,6.1c2.58,2.52,1.74,5.34,1,7.82-.87,2.9-1.28,4.78,1.08,6.71l.87.71ZM362.76,244c1.22,1.21,3.72,3.71,5.36,5.43a3.42,3.42,0,0,0,2.64,1.16,12,12,0,0,0,3.18-.64,14,14,0,0,1,3.86-.73,6.22,6.22,0,0,1,1.27.13,10.77,10.77,0,0,1,.65-5.12c.77-2.57,1.16-4.23-.47-5.82s-4.18-4.18-5.38-5.41Z" transform="translate(-129.04 -9.24)"/><path class="cls-2" d="M354,244s-3.82,3.77-6.06,6.12c-4.37,4.56-9.95-3.49-14.58,2.27l-.11-.1c5.72-4.68-2.38-10.19,2.14-14.6,2.32-2.27,6.06-6.12,6.06-6.12Z" transform="translate(-129.04 -9.24)"/><path class="cls-3" d="M333.42,253.92l-1.69-1.66.86-.71c2.36-1.94,2-3.81,1.08-6.71-.75-2.49-1.59-5.31,1-7.82,2.29-2.23,6-6.06,6-6.1l.7-.73,14,13.85-.72.71s-3.83,3.79-6,6.1a5.41,5.41,0,0,1-4.08,1.78,13.67,13.67,0,0,1-3.73-.71,12.31,12.31,0,0,0-3.3-.65,4.13,4.13,0,0,0-3.4,1.8Zm4.09-4.66a14,14,0,0,1,3.86.73,12,12,0,0,0,3.18.64,3.41,3.41,0,0,0,2.64-1.16c1.64-1.71,4.14-4.21,5.36-5.43l-11.11-11c-1.2,1.23-3.68,3.76-5.38,5.41s-1.24,3.25-.47,5.82a10.78,10.78,0,0,1,.65,5.12A6.21,6.21,0,0,1,337.52,249.26Z" transform="translate(-129.04 -9.24)"/><path class="cls-2" d="M361.34,212.39s3.82-3.77,6.06-6.12c4.37-4.56,9.95,3.48,14.58-2.27l.11.1c-5.72,4.68,2.38,10.19-2.14,14.6-2.33,2.27-6.06,6.12-6.06,6.12Z" transform="translate(-129.04 -9.24)"/><path class="cls-3" d="M373.9,226.24l-14-13.85.72-.71s3.83-3.79,6-6.1a5.41,5.41,0,0,1,4.08-1.78,13.64,13.64,0,0,1,3.73.71,12.33,12.33,0,0,0,3.3.65,4.13,4.13,0,0,0,3.4-1.8l.69-.86,1.7,1.65-.87.71c-2.36,1.94-2,3.81-1.08,6.71.75,2.49,1.59,5.31-1,7.82-2.29,2.23-6,6.06-6,6.1Zm-11.14-13.85,11.11,11c1.2-1.23,3.68-3.76,5.38-5.41s1.24-3.25.47-5.82a10.78,10.78,0,0,1-.65-5.12,6.22,6.22,0,0,1-1.27.13,14,14,0,0,1-3.86-.73,12,12,0,0,0-3.18-.64,3.41,3.41,0,0,0-2.64,1.16C366.49,208.68,364,211.18,362.76,212.39Z" transform="translate(-129.04 -9.24)"/><path class="cls-2" d="M354,212.39s-3.82-3.77-6.06-6.12c-4.37-4.56-9.95,3.48-14.58-2.27l-.11.1c5.72,4.68-2.38,10.19,2.14,14.6,2.32,2.27,6.06,6.12,6.06,6.12Z" transform="translate(-129.04 -9.24)"/><path class="cls-3" d="M341.42,226.24l-.7-.73s-3.75-3.87-6-6.1c-2.58-2.52-1.74-5.34-1-7.83.87-2.9,1.28-4.78-1.08-6.71l-.86-.7,1.69-1.66.69.86a4.13,4.13,0,0,0,3.4,1.8,12.33,12.33,0,0,0,3.3-.65,13.65,13.65,0,0,1,3.73-.71,5.41,5.41,0,0,1,4.08,1.78c2.21,2.31,6,6.06,6,6.1l.72.71ZM336.24,207a10.77,10.77,0,0,1-.65,5.12c-.77,2.57-1.16,4.23.47,5.82s4.18,4.18,5.38,5.41l11.11-11c-1.22-1.21-3.72-3.71-5.36-5.43a3.41,3.41,0,0,0-2.64-1.16,12,12,0,0,0-3.18.64,14,14,0,0,1-3.85.73A6.25,6.25,0,0,1,336.24,207Z" transform="translate(-129.04 -9.24)"/><path class="cls-2" d="M371.35,237.07s-2.48,26.86-13.72,35.53h-.32c-11.24-8.67-13.72-35.53-13.72-35.53Z" transform="translate(-129.04 -9.24)"/><path class="cls-3" d="M358,273.59h-1l-.27-.21c-11.45-8.83-14-35.11-14.1-36.23l-.1-1.09h29.95l-.1,1.09c-.1,1.11-2.65,27.39-14.1,36.23Zm-13.26-35.53c.6,5,3.61,25.72,12.76,33.37,9.15-7.65,12.16-28.37,12.76-33.37Z" transform="translate(-129.04 -9.24)"/><path class="cls-2" d="M366.33,242s-.06,5.37,0,8.61c.11,6.31-9.52,4.52-8.75,11.87h-.15c.76-7.35-8.86-5.56-8.75-11.87.06-3.25,0-8.61,0-8.61Z" transform="translate(-129.04 -9.24)"/><path class="cls-3" d="M358.68,263.51h-2.37l.11-1.1c.32-3-1.3-4.08-4-5.53-2.28-1.24-4.87-2.65-4.8-6.26.06-3.19,0-8.53,0-8.58v-1h19.68v1c0,.05-.06,5.39,0,8.58.06,3.61-2.52,5-4.8,6.26-2.66,1.45-4.27,2.49-4,5.53Zm-9-20.48c0,1.72,0,5.25,0,7.63s1.4,3.18,3.76,4.47a10.77,10.77,0,0,1,4.07,3.18,10.78,10.78,0,0,1,4.07-3.18c2.36-1.28,3.8-2.19,3.76-4.47s0-5.91,0-7.63Z" transform="translate(-129.04 -9.24)"/><ellipse class="cls-2" cx="228.5" cy="238.47" rx="6.34" ry="6.61"/><path class="cls-3" d="M357.53,255.32a7.61,7.61,0,1,1,7.33-7.61A7.49,7.49,0,0,1,357.53,255.32Zm0-13.22a5.62,5.62,0,1,0,5.33,5.61A5.48,5.48,0,0,0,357.53,242.1Z" transform="translate(-129.04 -9.24)"/><path class="cls-2" d="M371.35,219.5s-2.48-26.86-13.72-35.53h-.32c-11.24,8.67-13.72,35.53-13.72,35.53Z" transform="translate(-129.04 -9.24)"/><path class="cls-3" d="M372.45,220.5H342.5l.1-1.09c.1-1.11,2.65-27.39,14.1-36.23L357,183h1l.27.21c11.45,8.83,14,35.11,14.1,36.23Zm-27.73-2h25.52c-.6-5-3.61-25.72-12.76-33.37C348.32,192.78,345.32,213.5,344.72,218.5Z" transform="translate(-129.04 -9.24)"/><path class="cls-2" d="M366.33,214.54s-.06-5.37,0-8.61c.11-6.31-9.52-4.52-8.75-11.87h-.15c.76,7.35-8.86,5.56-8.75,11.87.06,3.24,0,8.61,0,8.61Z" transform="translate(-129.04 -9.24)"/><path class="cls-3" d="M367.34,215.54H347.66v-1c0-.05.06-5.39,0-8.58-.06-3.61,2.52-5,4.8-6.26,2.66-1.45,4.27-2.49,4-5.53l-.11-1.1h2.37l-.12,1.1c-.32,3,1.3,4.08,4,5.53,2.28,1.24,4.87,2.65,4.8,6.26-.06,3.19,0,8.53,0,8.58Zm-17.66-2h15.64c0-1.72,0-5.26,0-7.63s-1.4-3.18-3.76-4.47a10.78,10.78,0,0,1-4.07-3.18,10.77,10.77,0,0,1-4.07,3.18c-2.36,1.28-3.8,2.19-3.76,4.47S349.69,211.82,349.68,213.54Z" transform="translate(-129.04 -9.24)"/><ellipse class="cls-2" cx="228.5" cy="199.62" rx="6.34" ry="6.61"/><path class="cls-3" d="M357.53,216.47a7.61,7.61,0,1,1,7.33-7.61A7.49,7.49,0,0,1,357.53,216.47Zm0-13.22a5.62,5.62,0,1,0,5.33,5.61A5.48,5.48,0,0,0,357.53,203.25Z" transform="translate(-129.04 -9.24)"/><path class="cls-2" d="M366.26,214.41s26.86,2.48,35.53,13.72v.31c-8.67,11.24-35.53,13.72-35.53,13.72Z" transform="translate(-129.04 -9.24)"/><path class="cls-3" d="M365.26,243.26V213.31l1.09.1c1.11.1,27.39,2.65,36.23,14.1l.21.27v1l-.21.27c-8.83,11.45-35.11,14-36.23,14.1Zm2-27.73V241c5-.6,25.72-3.61,33.37-12.76C393,219.14,372.26,216.13,367.26,215.53Z" transform="translate(-129.04 -9.24)"/><path class="cls-2" d="M371.22,219.43s5.37.06,8.61,0c6.31-.11,4.52,9.52,11.87,8.75v.15c-7.35-.77-5.56,8.86-11.87,8.75-3.25-.06-8.61,0-8.61,0Z" transform="translate(-129.04 -9.24)"/><path class="cls-3" d="M370.22,238.1V218.42h1s5.35.06,8.58,0h.12c3.52,0,4.91,2.55,6.13,4.8s2.36,4.29,5.53,4l1.1-.11v2.37l-1.1-.11c-3.17-.33-4.26,1.63-5.53,4s-2.62,4.8-6.13,4.8h-.12c-3.23-.06-8.58,0-8.58,0Zm5.94-2c1.28,0,2.61,0,3.69,0h.09c2.21,0,3.1-1.43,4.37-3.76a10.76,10.76,0,0,1,3.18-4.07,10.77,10.77,0,0,1-3.18-4.07c-1.27-2.33-2.16-3.76-4.38-3.76-2.58,0-6,0-7.72,0v15.64Z" transform="translate(-129.04 -9.24)"/><ellipse class="cls-2" cx="247.87" cy="218.99" rx="6.61" ry="6.34"/><path class="cls-3" d="M376.9,235.56a7.34,7.34,0,1,1,7.61-7.33A7.48,7.48,0,0,1,376.9,235.56Zm0-12.67a5.34,5.34,0,1,0,5.61,5.34A5.48,5.48,0,0,0,376.9,222.89Z" transform="translate(-129.04 -9.24)"/><path class="cls-2" d="M348.69,214.41s-26.86,2.48-35.53,13.72v.31c8.67,11.24,35.53,13.72,35.53,13.72Z" transform="translate(-129.04 -9.24)"/><path class="cls-3" d="M349.69,243.26l-1.09-.1c-1.11-.1-27.39-2.65-36.23-14.1l-.21-.27v-1l.21-.27c8.83-11.45,35.11-14,36.23-14.1l1.09-.1Zm-35.37-15c7.65,9.15,28.37,12.16,33.37,12.76V215.53C342.7,216.13,322,219.14,314.32,228.28Z" transform="translate(-129.04 -9.24)"/><path class="cls-2" d="M343.73,219.43s-5.37.06-8.61,0c-6.31-.11-4.52,9.52-11.87,8.75v.15c7.35-.77,5.56,8.86,11.87,8.75,3.25-.06,8.61,0,8.61,0Z" transform="translate(-129.04 -9.24)"/><path class="cls-3" d="M344.73,238.1h-1s-5.35-.06-8.59,0H335c-3.52,0-4.91-2.55-6.13-4.8s-2.36-4.29-5.53-4l-1.1.11v-2.37l1.1.11c3.17.33,4.26-1.63,5.53-4s2.62-4.8,6.13-4.8h.12c3.23.06,8.58,0,8.59,0h1Zm-17.28-9.84a10.76,10.76,0,0,1,3.19,4.07c1.27,2.33,2.16,3.76,4.38,3.76h.09c2.39,0,5.91,0,7.63,0V220.44c-1.72,0-5.24,0-7.63,0h0c-2.3,0-3.2,1.43-4.47,3.76A10.76,10.76,0,0,1,327.45,228.26Z" transform="translate(-129.04 -9.24)"/><ellipse class="cls-2" cx="209.01" cy="218.99" rx="6.61" ry="6.34"/><path class="cls-3" d="M338,235.56a7.34,7.34,0,1,1,7.61-7.33A7.48,7.48,0,0,1,338,235.56Zm0-12.67a5.34,5.34,0,1,0,5.61,5.34A5.48,5.48,0,0,0,338,222.89Z" transform="translate(-129.04 -9.24)"/><ellipse class="cls-2" cx="214.17" cy="232.79" rx="6.34" ry="6.61"/><path class="cls-3" d="M343.2,249.63a7.61,7.61,0,1,1,7.34-7.61A7.48,7.48,0,0,1,343.2,249.63Zm0-13.22a5.62,5.62,0,1,0,5.34,5.61A5.48,5.48,0,0,0,343.2,236.42Z" transform="translate(-129.04 -9.24)"/><ellipse class="cls-2" cx="243.56" cy="232.79" rx="6.34" ry="6.61"/><path class="cls-3" d="M372.6,249.63a7.61,7.61,0,1,1,7.34-7.61A7.48,7.48,0,0,1,372.6,249.63Zm0-13.22a5.62,5.62,0,1,0,5.34,5.61A5.48,5.48,0,0,0,372.6,236.42Z" transform="translate(-129.04 -9.24)"/><ellipse class="cls-2" cx="214.17" cy="205.17" rx="6.34" ry="6.61"/><path class="cls-3" d="M343.2,222a7.61,7.61,0,1,1,7.34-7.61A7.48,7.48,0,0,1,343.2,222Zm0-13.22a5.62,5.62,0,1,0,5.34,5.61A5.48,5.48,0,0,0,343.2,208.8Z" transform="translate(-129.04 -9.24)"/><ellipse class="cls-2" cx="243.56" cy="205.17" rx="6.34" ry="6.61"/><path class="cls-3" d="M372.6,222a7.61,7.61,0,1,1,7.34-7.61A7.48,7.48,0,0,1,372.6,222Zm0-13.22a5.62,5.62,0,1,0,5.34,5.61A5.48,5.48,0,0,0,372.6,208.8Z" transform="translate(-129.04 -9.24)"/><ellipse class="cls-2" cx="228.5" cy="218.86" rx="17.62" ry="17.51"/><path class="cls-3" d="M357.53,246.61a18.51,18.51,0,1,1,18.62-18.51A18.59,18.59,0,0,1,357.53,246.61Zm0-35a16.51,16.51,0,1,0,16.62,16.51A16.59,16.59,0,0,0,357.53,211.59Z" transform="translate(-129.04 -9.24)"/><ellipse class="cls-2" cx="228.28" cy="208.29" rx="3.75" ry="3.91"/><path class="cls-3" d="M357.32,222.44a4.91,4.91,0,1,1,4.75-4.91A4.83,4.83,0,0,1,357.32,222.44Zm0-7.82a2.91,2.91,0,1,0,2.75,2.91A2.83,2.83,0,0,0,357.32,214.62Z" transform="translate(-129.04 -9.24)"/><ellipse class="cls-2" cx="235.78" cy="211.62" rx="3.75" ry="3.91"/><path class="cls-3" d="M364.81,225.77a4.91,4.91,0,1,1,4.75-4.91A4.84,4.84,0,0,1,364.81,225.77Zm0-7.82a2.91,2.91,0,1,0,2.75,2.91A2.83,2.83,0,0,0,364.81,218Z" transform="translate(-129.04 -9.24)"/><ellipse class="cls-2" cx="220.79" cy="211.62" rx="3.75" ry="3.91"/><path class="cls-3" d="M349.83,225.77a4.91,4.91,0,1,1,4.75-4.91A4.84,4.84,0,0,1,349.83,225.77Zm0-7.82a2.91,2.91,0,1,0,2.75,2.91A2.83,2.83,0,0,0,349.83,218Z" transform="translate(-129.04 -9.24)"/><ellipse class="cls-2" cx="228.28" cy="229.51" rx="3.75" ry="3.91"/><path class="cls-3" d="M357.32,243.66a4.91,4.91,0,1,1,4.75-4.91A4.83,4.83,0,0,1,357.32,243.66Zm0-7.82a2.91,2.91,0,1,0,2.75,2.91A2.83,2.83,0,0,0,357.32,235.84Z" transform="translate(-129.04 -9.24)"/><ellipse class="cls-2" cx="235.78" cy="226.18" rx="3.75" ry="3.91"/><path class="cls-3" d="M364.81,240.33a4.91,4.91,0,1,1,4.75-4.91A4.84,4.84,0,0,1,364.81,240.33Zm0-7.82a2.91,2.91,0,1,0,2.75,2.91A2.83,2.83,0,0,0,364.81,232.51Z" transform="translate(-129.04 -9.24)"/><ellipse class="cls-2" cx="239.2" cy="218.86" rx="3.75" ry="3.91"/><path class="cls-3" d="M368.24,233A4.91,4.91,0,1,1,373,228.1,4.83,4.83,0,0,1,368.24,233Zm0-7.82A2.91,2.91,0,1,0,371,228.1,2.83,2.83,0,0,0,368.24,225.19Z" transform="translate(-129.04 -9.24)"/><ellipse class="cls-2" cx="217.72" cy="218.86" rx="3.75" ry="3.91"/><path class="cls-3" d="M346.75,233a4.91,4.91,0,1,1,4.75-4.91A4.83,4.83,0,0,1,346.75,233Zm0-7.82a2.91,2.91,0,1,0,2.75,2.91A2.83,2.83,0,0,0,346.75,225.19Z" transform="translate(-129.04 -9.24)"/><ellipse class="cls-2" cx="220.79" cy="226.18" rx="3.75" ry="3.91"/><path class="cls-3" d="M349.83,240.33a4.91,4.91,0,1,1,4.75-4.91A4.84,4.84,0,0,1,349.83,240.33Zm0-7.82a2.91,2.91,0,1,0,2.75,2.91A2.83,2.83,0,0,0,349.83,232.51Z" transform="translate(-129.04 -9.24)"/><rect class="cls-2" x="221.47" y="211.62" width="13.99" height="13.98"/><path class="cls-3" d="M365.49,235.84h-16v-16h16Zm-14-2h12v-12h-12Z" transform="translate(-129.04 -9.24)"/><rect class="cls-2" x="350.5" y="220.86" width="13.99" height="13.98" transform="translate(-183.24 319.72) rotate(-46.31)"/><path class="cls-3" d="M357.75,239.15l-11.55-11,11-11.56,11.55,11ZM349,228l8.66,8.27,8.28-8.67-8.66-8.27Z" transform="translate(-129.04 -9.24)"/><path class="cls-2" d="M320.86,175.56l7.43-3.86c2-1.06.14-4.84-4.24-8.4,0,0-4.31-3.5-6.17-2.54s-1.46,6.51-1.46,6.51C316.82,172.89,318.81,176.62,320.86,175.56Z" transform="translate(-129.04 -9.24)"/><path class="cls-3" d="M320.16,176.74h0c-2.81,0-4.41-4.72-4.74-9.4-.1-1.45-.26-6.29,2-7.47a2.65,2.65,0,0,1,1.23-.28c2.36,0,5.66,2.63,6,2.93,3.55,2.89,5.63,6,5.41,8.07a2.45,2.45,0,0,1-1.34,2l-7.43,3.86A2.5,2.5,0,0,1,320.16,176.74Zm-1.51-15.15a.7.7,0,0,0-.31.06c-.75.39-1.09,3.24-.93,5.55.36,5,2,7.54,2.75,7.54h0a.52.52,0,0,0,.24-.07l7.43-3.86a.46.46,0,0,0,.28-.42c.12-1.15-1.45-3.69-4.68-6.32C322.23,163.11,319.89,161.59,318.65,161.59Z" transform="translate(-129.04 -9.24)"/><path class="cls-2" d="M320.86,175.56l7.43-3.86c2-1.06.14-4.84-4.24-8.4,0,0-4.31-3.5-6.17-2.54s-1.46,6.51-1.46,6.51C316.82,172.89,318.81,176.62,320.86,175.56Z" transform="translate(-129.04 -9.24)"/><path class="cls-3" d="M320.16,176.74h0c-2.81,0-4.41-4.72-4.74-9.4-.1-1.45-.26-6.29,2-7.47a2.65,2.65,0,0,1,1.23-.28c2.36,0,5.66,2.63,6,2.93,3.55,2.89,5.63,6,5.41,8.07a2.45,2.45,0,0,1-1.34,2l-7.43,3.86A2.5,2.5,0,0,1,320.16,176.74Z" transform="translate(-129.04 -9.24)"/><path class="cls-2" d="M335.14,168.23l8-2.41c2.2-.66,1-4.73-2.6-9,0,0-3.58-4.25-5.59-3.64s-2.65,6.12-2.65,6.12C331.67,164.86,332.94,168.9,335.14,168.23Z" transform="translate(-129.04 -9.24)"/><path class="cls-3" d="M334.68,169.3h0a2.56,2.56,0,0,1-1.93-.93c-1.38-1.55-1.91-5-1.42-9.24.17-1.45.91-6.23,3.35-7a2.45,2.45,0,0,1,.71-.1c2.39,0,5.36,3.38,5.93,4.06,3,3.5,4.41,6.92,3.81,8.94a2.45,2.45,0,0,1-1.69,1.7l-8,2.41A2.6,2.6,0,0,1,334.68,169.3Zm.71-15.23-.13,0c-.81.24-1.67,3-1.94,5.28-.47,4,.12,6.77.93,7.67.23.26.38.26.44.26l.18,0,8-2.41a.46.46,0,0,0,.35-.36c.33-1.11-.74-3.9-3.42-7.08C338.65,156.08,336.47,154.08,335.39,154.08Z" transform="translate(-129.04 -9.24)"/><path class="cls-2" d="M335.14,168.23l8-2.41c2.2-.66,1-4.73-2.6-9,0,0-3.58-4.25-5.59-3.64s-2.65,6.12-2.65,6.12C331.67,164.86,332.94,168.9,335.14,168.23Z" transform="translate(-129.04 -9.24)"/><path class="cls-3" d="M334.68,169.3h0a2.56,2.56,0,0,1-1.93-.93c-1.38-1.55-1.91-5-1.42-9.24.17-1.45.91-6.23,3.35-7a2.45,2.45,0,0,1,.71-.1c2.39,0,5.36,3.38,5.93,4.06,3,3.5,4.41,6.92,3.81,8.94a2.45,2.45,0,0,1-1.69,1.7l-8,2.41A2.6,2.6,0,0,1,334.68,169.3Z" transform="translate(-129.04 -9.24)"/><path class="cls-2" d="M394.5,175.56l-7.43-3.86c-2-1.06-.13-4.84,4.24-8.4,0,0,4.31-3.5,6.17-2.54s1.46,6.51,1.46,6.51C398.54,172.89,396.54,176.62,394.5,175.56Z" transform="translate(-129.04 -9.24)"/><path class="cls-3" d="M395.2,176.74a2.49,2.49,0,0,1-1.16-.29l-7.43-3.86a2.45,2.45,0,0,1-1.34-2c-.21-2.09,1.86-5.19,5.41-8.07.37-.3,3.67-2.93,6-2.93a2.65,2.65,0,0,1,1.23.28c2.26,1.18,2.1,6,2,7.47C399.6,172,398,176.74,395.2,176.74Zm1.51-15.15c-1.24,0-3.58,1.52-4.77,2.48-3.23,2.63-4.8,5.17-4.69,6.32a.46.46,0,0,0,.28.41l7.43,3.86a.51.51,0,0,0,.24.07c.79,0,2.39-2.52,2.75-7.54.16-2.31-.18-5.16-.93-5.55A.69.69,0,0,0,396.71,161.59Z" transform="translate(-129.04 -9.24)"/><path class="cls-2" d="M394.5,175.56l-7.43-3.86c-2-1.06-.13-4.84,4.24-8.4,0,0,4.31-3.5,6.17-2.54s1.46,6.51,1.46,6.51C398.54,172.89,396.54,176.62,394.5,175.56Z" transform="translate(-129.04 -9.24)"/><path class="cls-3" d="M395.2,176.74a2.49,2.49,0,0,1-1.16-.29l-7.43-3.86a2.45,2.45,0,0,1-1.34-2c-.21-2.09,1.86-5.19,5.41-8.07.37-.3,3.67-2.93,6-2.93a2.65,2.65,0,0,1,1.23.28c2.26,1.18,2.1,6,2,7.47C399.6,172,398,176.74,395.2,176.74Z" transform="translate(-129.04 -9.24)"/><path class="cls-2" d="M380.21,168.23l-8-2.41c-2.21-.66-1-4.73,2.6-9,0,0,3.58-4.25,5.59-3.64s2.65,6.12,2.65,6.12C383.69,164.86,382.42,168.9,380.21,168.23Z" transform="translate(-129.04 -9.24)"/><path class="cls-3" d="M380.68,169.3a2.6,2.6,0,0,1-.75-.11l-8-2.41a2.45,2.45,0,0,1-1.69-1.7c-.6-2,.86-5.44,3.81-8.94.57-.68,3.54-4.06,5.93-4.06a2.44,2.44,0,0,1,.71.1c2.44.74,3.19,5.52,3.35,7,.49,4.23,0,7.68-1.42,9.23A2.56,2.56,0,0,1,380.68,169.3ZM380,154.08c-1.08,0-3.26,2-4.4,3.35-2.69,3.18-3.76,6-3.43,7.08a.46.46,0,0,0,.35.36l8,2.41.18,0c.06,0,.21,0,.44-.26.8-.9,1.4-3.62.93-7.67-.27-2.3-1.14-5-1.94-5.28Z" transform="translate(-129.04 -9.24)"/><path class="cls-2" d="M380.21,168.23l-8-2.41c-2.21-.66-1-4.73,2.6-9,0,0,3.58-4.25,5.59-3.64s2.65,6.12,2.65,6.12C383.69,164.86,382.42,168.9,380.21,168.23Z" transform="translate(-129.04 -9.24)"/><path class="cls-3" d="M380.68,169.3a2.6,2.6,0,0,1-.75-.11l-8-2.41a2.45,2.45,0,0,1-1.69-1.7c-.6-2,.86-5.44,3.81-8.94.57-.68,3.54-4.06,5.93-4.06a2.44,2.44,0,0,1,.71.1c2.44.74,3.19,5.52,3.35,7,.49,4.23,0,7.68-1.42,9.23A2.56,2.56,0,0,1,380.68,169.3Z" transform="translate(-129.04 -9.24)"/><path class="cls-2" d="M320.86,280.54l7.43,3.86c2,1.06.14,4.84-4.24,8.4,0,0-4.31,3.5-6.17,2.54s-1.46-6.51-1.46-6.51C316.82,283.21,318.81,279.47,320.86,280.54Z" transform="translate(-129.04 -9.24)"/><path class="cls-3" d="M318.65,296.5a2.64,2.64,0,0,1-1.23-.28c-2.26-1.18-2.1-6-2-7.47.33-4.68,1.93-9.4,4.74-9.4a2.5,2.5,0,0,1,1.16.29l7.43,3.86a2.45,2.45,0,0,1,1.34,2c.21,2.09-1.86,5.18-5.41,8.07C324.31,293.87,321,296.5,318.65,296.5Zm1.51-15.15c-.79,0-2.39,2.52-2.74,7.54-.16,2.31.18,5.16.93,5.55a.7.7,0,0,0,.31.05c1.24,0,3.58-1.52,4.77-2.48,3.23-2.62,4.8-5.17,4.68-6.32a.46.46,0,0,0-.28-.42l-7.43-3.86A.51.51,0,0,0,320.16,281.36Z" transform="translate(-129.04 -9.24)"/><path class="cls-2" d="M320.86,280.54l7.43,3.86c2,1.06.14,4.84-4.24,8.4,0,0-4.31,3.5-6.17,2.54s-1.46-6.51-1.46-6.51C316.82,283.21,318.81,279.47,320.86,280.54Z" transform="translate(-129.04 -9.24)"/><path class="cls-3" d="M318.65,296.5a2.64,2.64,0,0,1-1.23-.28c-2.26-1.18-2.1-6-2-7.47.33-4.68,1.93-9.4,4.74-9.4a2.5,2.5,0,0,1,1.16.29l7.43,3.86a2.45,2.45,0,0,1,1.34,2c.21,2.09-1.86,5.18-5.41,8.07C324.31,293.87,321,296.5,318.65,296.5Z" transform="translate(-129.04 -9.24)"/><path class="cls-2" d="M335.14,287.86l8,2.41c2.2.66,1,4.73-2.6,9,0,0-3.58,4.25-5.59,3.64s-2.65-6.12-2.65-6.12C331.67,291.24,332.94,287.2,335.14,287.86Z" transform="translate(-129.04 -9.24)"/><path class="cls-3" d="M335.39,304a2.48,2.48,0,0,1-.71-.1c-2.44-.74-3.19-5.52-3.35-7-.49-4.23,0-7.68,1.42-9.24a2.51,2.51,0,0,1,2.68-.81l8,2.41a2.46,2.46,0,0,1,1.69,1.7c.6,2-.86,5.44-3.81,8.94C340.75,300.63,337.78,304,335.39,304Zm-.71-15.23c-.06,0-.21,0-.44.26-.8.9-1.4,3.62-.93,7.67.27,2.3,1.14,5,1.94,5.28l.13,0c1.08,0,3.27-2,4.41-3.35,2.68-3.18,3.75-6,3.42-7.08a.46.46,0,0,0-.35-.36l-8-2.41Z" transform="translate(-129.04 -9.24)"/><path class="cls-2" d="M335.14,287.86l8,2.41c2.2.66,1,4.73-2.6,9,0,0-3.58,4.25-5.59,3.64s-2.65-6.12-2.65-6.12C331.67,291.24,332.94,287.2,335.14,287.86Z" transform="translate(-129.04 -9.24)"/><path class="cls-3" d="M335.39,304a2.48,2.48,0,0,1-.71-.1c-2.44-.74-3.19-5.52-3.35-7-.49-4.23,0-7.68,1.42-9.24a2.51,2.51,0,0,1,2.68-.81l8,2.41a2.46,2.46,0,0,1,1.69,1.7c.6,2-.86,5.44-3.81,8.94C340.75,300.63,337.78,304,335.39,304Z" transform="translate(-129.04 -9.24)"/><path class="cls-2" d="M394.5,280.54l-7.43,3.86c-2,1.06-.13,4.84,4.24,8.4,0,0,4.31,3.5,6.17,2.54s1.46-6.51,1.46-6.51C398.54,283.21,396.54,279.47,394.5,280.54Z" transform="translate(-129.04 -9.24)"/><path class="cls-3" d="M396.71,296.5h0c-2.36,0-5.66-2.63-6-2.93-3.55-2.89-5.63-6-5.41-8.07a2.45,2.45,0,0,1,1.34-2l7.43-3.87a2.5,2.5,0,0,1,1.16-.29c2.81,0,4.41,4.72,4.74,9.4.1,1.45.26,6.29-2,7.47A2.64,2.64,0,0,1,396.71,296.5Zm-1.51-15.15a.52.52,0,0,0-.24.07l-7.38,3.84a.5.5,0,0,0-.33.44c-.12,1.15,1.46,3.69,4.69,6.32,1.18,1,3.52,2.48,4.77,2.48h0a.69.69,0,0,0,.31-.06c.75-.39,1.09-3.24.93-5.55C397.58,283.88,396,281.36,395.2,281.36Z" transform="translate(-129.04 -9.24)"/><path class="cls-2" d="M394.5,280.54l-7.43,3.86c-2,1.06-.13,4.84,4.24,8.4,0,0,4.31,3.5,6.17,2.54s1.46-6.51,1.46-6.51C398.54,283.21,396.54,279.47,394.5,280.54Z" transform="translate(-129.04 -9.24)"/><path class="cls-3" d="M396.71,296.5h0c-2.36,0-5.66-2.63-6-2.93-3.55-2.89-5.63-6-5.41-8.07a2.45,2.45,0,0,1,1.34-2l7.43-3.87a2.5,2.5,0,0,1,1.16-.29c2.81,0,4.41,4.72,4.74,9.4.1,1.45.26,6.29-2,7.47A2.64,2.64,0,0,1,396.71,296.5Z" transform="translate(-129.04 -9.24)"/><path class="cls-2" d="M380.21,287.86l-8,2.41c-2.21.66-1,4.73,2.6,9,0,0,3.58,4.25,5.59,3.64s2.65-6.12,2.65-6.12C383.69,291.24,382.42,287.2,380.21,287.86Z" transform="translate(-129.04 -9.24)"/><path class="cls-3" d="M380,304h0c-2.39,0-5.36-3.38-5.93-4.06-3-3.5-4.41-6.92-3.81-8.94a2.45,2.45,0,0,1,1.69-1.7l8-2.41a2.51,2.51,0,0,1,2.68.81c1.38,1.55,1.91,5,1.42,9.24-.17,1.45-.91,6.23-3.35,7A2.47,2.47,0,0,1,380,304Zm.71-15.23-.17,0-8,2.41a.46.46,0,0,0-.35.36c-.33,1.11.74,3.9,3.43,7.08C376.7,300,378.89,302,380,302h0l.13,0c.81-.24,1.67-3,1.94-5.28.47-4-.12-6.77-.93-7.67C380.89,288.79,380.73,288.79,380.68,288.79Z" transform="translate(-129.04 -9.24)"/><path class="cls-2" d="M380.21,287.86l-8,2.41c-2.21.66-1,4.73,2.6,9,0,0,3.58,4.25,5.59,3.64s2.65-6.12,2.65-6.12C383.69,291.24,382.42,287.2,380.21,287.86Z" transform="translate(-129.04 -9.24)"/><path class="cls-3" d="M380,304h0c-2.39,0-5.36-3.38-5.93-4.06-3-3.5-4.41-6.92-3.81-8.94a2.45,2.45,0,0,1,1.69-1.7l8-2.41a2.51,2.51,0,0,1,2.68.81c1.38,1.55,1.91,5,1.42,9.24-.17,1.45-.91,6.23-3.35,7A2.47,2.47,0,0,1,380,304Z" transform="translate(-129.04 -9.24)"/><path class="cls-2" d="M305.19,264.87l-3.86-7.43c-1.06-2-4.84-.14-8.4,4.24,0,0-3.5,4.31-2.54,6.17s6.51,1.46,6.51,1.46C302.52,268.91,306.25,266.91,305.19,264.87Z" transform="translate(-129.04 -9.24)"/><path class="cls-3" d="M295.69,270.34c-3.4,0-5.48-.69-6.19-2-1.18-2.26,1.73-6.13,2.65-7.26,2.76-3.4,5.66-5.43,7.76-5.43a2.47,2.47,0,0,1,2.3,1.36l3.86,7.43a2.45,2.45,0,0,1,0,2.4c-1,1.84-4.5,3.18-9.07,3.5C297,270.3,296.45,270.34,295.69,270.34Zm4.22-12.72c-1.15,0-3.59,1.47-6.21,4.69-1.46,1.8-2.82,4.33-2.43,5.08.17.33,1.32,1,4.41,1,.66,0,1.12,0,1.14,0,4.15-.29,6.9-1.47,7.46-2.48a.46.46,0,0,0,0-.5l-3.86-7.43A.49.49,0,0,0,299.91,257.62Z" transform="translate(-129.04 -9.24)"/><path class="cls-2" d="M305.19,264.87l-3.86-7.43c-1.06-2-4.84-.14-8.4,4.24,0,0-3.5,4.31-2.54,6.17s6.51,1.46,6.51,1.46C302.52,268.91,306.25,266.91,305.19,264.87Z" transform="translate(-129.04 -9.24)"/><path class="cls-3" d="M295.69,270.34c-3.4,0-5.48-.69-6.19-2-1.18-2.26,1.73-6.13,2.65-7.26,2.76-3.4,5.66-5.43,7.76-5.43a2.47,2.47,0,0,1,2.3,1.36l3.86,7.43a2.45,2.45,0,0,1,0,2.4c-1,1.84-4.5,3.18-9.07,3.5C297,270.3,296.45,270.34,295.69,270.34Z" transform="translate(-129.04 -9.24)"/><path class="cls-2" d="M297.86,250.58l-2.41-8c-.66-2.21-4.73-1-9,2.6,0,0-4.25,3.58-3.64,5.59s6.12,2.65,6.12,2.65C294.49,254.06,298.53,252.79,297.86,250.58Z" transform="translate(-129.04 -9.24)"/><path class="cls-3" d="M291.72,254.57h0a25.43,25.43,0,0,1-2.94-.18c-1.45-.17-6.23-.91-7-3.35s2.84-5.7,4-6.64c2.93-2.47,5.9-3.95,7.93-3.95a2.6,2.6,0,0,1,2.71,1.83l2.41,8a2.45,2.45,0,0,1-.38,2.22C297.1,254.31,293.65,254.57,291.72,254.57Zm2-12.12c-1.16,0-3.6.91-6.64,3.48-1.77,1.5-3.57,3.73-3.33,4.54s3,1.67,5.28,1.94a23.55,23.55,0,0,0,2.71.16c2.89,0,4.65-.63,5.11-1.25a.45.45,0,0,0,.07-.45l-2.41-8C294.45,242.71,294.37,242.45,293.7,242.45Z" transform="translate(-129.04 -9.24)"/><path class="cls-2" d="M297.86,250.58l-2.41-8c-.66-2.21-4.73-1-9,2.6,0,0-4.25,3.58-3.64,5.59s6.12,2.65,6.12,2.65C294.49,254.06,298.53,252.79,297.86,250.58Z" transform="translate(-129.04 -9.24)"/><path class="cls-3" d="M291.72,254.57h0a25.43,25.43,0,0,1-2.94-.18c-1.45-.17-6.23-.91-7-3.35s2.84-5.7,4-6.64c2.93-2.47,5.9-3.95,7.93-3.95a2.6,2.6,0,0,1,2.71,1.83l2.41,8a2.45,2.45,0,0,1-.38,2.22C297.1,254.31,293.65,254.57,291.72,254.57Z" transform="translate(-129.04 -9.24)"/><path class="cls-2" d="M305.19,191.23l-3.86,7.43c-1.06,2-4.84.13-8.4-4.24,0,0-3.5-4.31-2.54-6.17s6.51-1.46,6.51-1.46C302.52,187.19,306.25,189.19,305.19,191.23Z" transform="translate(-129.04 -9.24)"/><path class="cls-3" d="M299.91,200.48c-2.1,0-5-2-7.76-5.43-.92-1.13-3.83-5-2.65-7.26.7-1.35,2.79-2,6.19-2,.76,0,1.28,0,1.28,0,4.57.33,8,1.67,9.07,3.5a2.45,2.45,0,0,1,0,2.4l-3.86,7.43A2.47,2.47,0,0,1,299.91,200.48Zm-4.22-12.73c-3.1,0-4.24.63-4.41,1-.39.75,1,3.28,2.43,5.08,2.62,3.22,5.05,4.69,6.21,4.69a.49.49,0,0,0,.53-.28l3.86-7.43a.46.46,0,0,0,0-.5c-.56-1-3.31-2.19-7.46-2.48C296.81,187.78,296.35,187.75,295.69,187.75Z" transform="translate(-129.04 -9.24)"/><path class="cls-2" d="M305.19,191.23l-3.86,7.43c-1.06,2-4.84.13-8.4-4.24,0,0-3.5-4.31-2.54-6.17s6.51-1.46,6.51-1.46C302.52,187.19,306.25,189.19,305.19,191.23Z" transform="translate(-129.04 -9.24)"/><path class="cls-3" d="M299.91,200.48c-2.1,0-5-2-7.76-5.43-.92-1.13-3.83-5-2.65-7.26.7-1.35,2.79-2,6.19-2,.76,0,1.28,0,1.28,0,4.57.33,8,1.67,9.07,3.5a2.45,2.45,0,0,1,0,2.4l-3.86,7.43A2.47,2.47,0,0,1,299.91,200.48Z" transform="translate(-129.04 -9.24)"/><path class="cls-2" d="M297.86,205.51l-2.41,8c-.66,2.21-4.73,1-9-2.6,0,0-4.25-3.58-3.64-5.59s6.12-2.65,6.12-2.65C294.49,202,298.53,203.31,297.86,205.51Z" transform="translate(-129.04 -9.24)"/><path class="cls-3" d="M293.7,215.64c-2,0-5-1.48-7.93-4-1.11-.94-4.69-4.2-4-6.64s5.52-3.19,7-3.35a25.53,25.53,0,0,1,2.94-.18c1.94,0,5.39.27,6.72,2.06a2.45,2.45,0,0,1,.38,2.22l-2.41,8A2.6,2.6,0,0,1,293.7,215.64Zm-2-12.12a23.47,23.47,0,0,0-2.71.17c-2.3.27-5,1.14-5.28,1.94s1.56,3,3.33,4.54c3,2.57,5.48,3.48,6.64,3.48.67,0,.75-.26.79-.4l2.41-8a.44.44,0,0,0-.07-.45C296.37,204.15,294.61,203.52,291.72,203.52Z" transform="translate(-129.04 -9.24)"/><path class="cls-2" d="M297.86,205.51l-2.41,8c-.66,2.21-4.73,1-9-2.6,0,0-4.25-3.58-3.64-5.59s6.12-2.65,6.12-2.65C294.49,202,298.53,203.31,297.86,205.51Z" transform="translate(-129.04 -9.24)"/><path class="cls-3" d="M293.7,215.64c-2,0-5-1.48-7.93-4-1.11-.94-4.69-4.2-4-6.64s5.52-3.19,7-3.35a25.53,25.53,0,0,1,2.94-.18c1.94,0,5.39.27,6.72,2.06a2.45,2.45,0,0,1,.38,2.22l-2.41,8A2.6,2.6,0,0,1,293.7,215.64Z" transform="translate(-129.04 -9.24)"/><path class="cls-2" d="M410.17,264.87l3.86-7.43c1.06-2,4.84-.14,8.4,4.24,0,0,3.5,4.31,2.54,6.17s-6.51,1.46-6.51,1.46C412.84,268.91,409.11,266.91,410.17,264.87Z" transform="translate(-129.04 -9.24)"/><path class="cls-3" d="M419.67,270.34c-.76,0-1.28,0-1.28,0-4.56-.32-8-1.67-9.07-3.5a2.45,2.45,0,0,1,0-2.4l3.86-7.43a2.47,2.47,0,0,1,2.3-1.36c2.1,0,5,2,7.76,5.43.92,1.13,3.83,5,2.65,7.26C425.15,269.66,423.07,270.34,419.67,270.34Zm-4.22-12.72a.49.49,0,0,0-.53.28l-3.87,7.43a.46.46,0,0,0,0,.5c.57,1,3.31,2.19,7.46,2.48,0,0,.48,0,1.14,0,3.09,0,4.24-.63,4.41-1,.39-.75-1-3.28-2.43-5.08C419,259.08,416.6,257.62,415.45,257.62Z" transform="translate(-129.04 -9.24)"/><path class="cls-2" d="M410.17,264.87l3.86-7.43c1.06-2,4.84-.14,8.4,4.24,0,0,3.5,4.31,2.54,6.17s-6.51,1.46-6.51,1.46C412.84,268.91,409.11,266.91,410.17,264.87Z" transform="translate(-129.04 -9.24)"/><path class="cls-3" d="M419.67,270.34c-.76,0-1.28,0-1.28,0-4.56-.32-8-1.67-9.07-3.5a2.45,2.45,0,0,1,0-2.4l3.86-7.43a2.47,2.47,0,0,1,2.3-1.36c2.1,0,5,2,7.76,5.43.92,1.13,3.83,5,2.65,7.26C425.15,269.66,423.07,270.34,419.67,270.34Z" transform="translate(-129.04 -9.24)"/><path class="cls-2" d="M417.49,250.58l2.41-8c.66-2.21,4.73-1,9,2.6,0,0,4.25,3.58,3.64,5.59s-6.12,2.65-6.12,2.65C420.87,254.06,416.83,252.79,417.49,250.58Z" transform="translate(-129.04 -9.24)"/><path class="cls-3" d="M423.64,254.57c-1.94,0-5.38-.27-6.72-2.06a2.45,2.45,0,0,1-.38-2.22l2.41-8a2.6,2.6,0,0,1,2.71-1.83c2,0,5,1.48,7.93,3.95,1.11.94,4.69,4.2,4,6.64s-5.52,3.19-7,3.35A25.43,25.43,0,0,1,423.64,254.57Zm-2-12.12c-.67,0-.75.26-.8.4l-2.41,8a.45.45,0,0,0,.08.45c.46.63,2.23,1.25,5.11,1.25a23.58,23.58,0,0,0,2.71-.16c2.3-.27,5-1.14,5.28-1.94s-1.56-3-3.33-4.54C425.26,243.36,422.82,242.45,421.66,242.45Z" transform="translate(-129.04 -9.24)"/><path class="cls-2" d="M417.49,250.58l2.41-8c.66-2.21,4.73-1,9,2.6,0,0,4.25,3.58,3.64,5.59s-6.12,2.65-6.12,2.65C420.87,254.06,416.83,252.79,417.49,250.58Z" transform="translate(-129.04 -9.24)"/><path class="cls-3" d="M423.64,254.57c-1.94,0-5.38-.27-6.72-2.06a2.45,2.45,0,0,1-.38-2.22l2.41-8a2.6,2.6,0,0,1,2.71-1.83c2,0,5,1.48,7.93,3.95,1.11.94,4.69,4.2,4,6.64s-5.52,3.19-7,3.35A25.43,25.43,0,0,1,423.64,254.57Z" transform="translate(-129.04 -9.24)"/><path class="cls-2" d="M410.17,191.23l3.86,7.43c1.06,2,4.84.13,8.4-4.24,0,0,3.5-4.31,2.54-6.17s-6.51-1.46-6.51-1.46C412.84,187.19,409.11,189.19,410.17,191.23Z" transform="translate(-129.04 -9.24)"/><path class="cls-3" d="M415.45,200.48h0a2.47,2.47,0,0,1-2.3-1.36l-3.86-7.43a2.45,2.45,0,0,1,0-2.4c1-1.84,4.5-3.18,9.07-3.5,0,0,.52,0,1.28,0,3.4,0,5.49.69,6.19,2,1.18,2.26-1.73,6.13-2.65,7.26C420.44,198.45,417.54,200.48,415.45,200.48Zm4.22-12.73c-.66,0-1.12,0-1.14,0-4.15.3-6.9,1.47-7.46,2.48a.46.46,0,0,0,0,.5l3.87,7.43a.49.49,0,0,0,.53.28h0c1.15,0,3.59-1.47,6.21-4.69,1.46-1.8,2.82-4.33,2.43-5.08C423.91,188.38,422.76,187.75,419.67,187.75Z" transform="translate(-129.04 -9.24)"/><path class="cls-2" d="M410.17,191.23l3.86,7.43c1.06,2,4.84.13,8.4-4.24,0,0,3.5-4.31,2.54-6.17s-6.51-1.46-6.51-1.46C412.84,187.19,409.11,189.19,410.17,191.23Z" transform="translate(-129.04 -9.24)"/><path class="cls-3" d="M415.45,200.48h0a2.47,2.47,0,0,1-2.3-1.36l-3.86-7.43a2.45,2.45,0,0,1,0-2.4c1-1.84,4.5-3.18,9.07-3.5,0,0,.52,0,1.28,0,3.4,0,5.49.69,6.19,2,1.18,2.26-1.73,6.13-2.65,7.26C420.44,198.45,417.54,200.48,415.45,200.48Z" transform="translate(-129.04 -9.24)"/><g id="stip1"><path class="cls-2" d="M417.49,205.51l2.41,8c.66,2.21,4.73,1,9-2.6,0,0,4.25-3.58,3.64-5.59s-6.12-2.65-6.12-2.65C420.87,202,416.83,203.31,417.49,205.51Z" transform="translate(-129.04 -9.24)"/><path class="cls-3" d="M421.66,215.64h0a2.6,2.6,0,0,1-2.71-1.83l-2.41-8a2.45,2.45,0,0,1,.38-2.22c1.33-1.79,4.78-2.06,6.72-2.06a25.52,25.52,0,0,1,2.94.18c1.45.17,6.23.91,7,3.35s-2.84,5.7-4,6.64C426.66,214.17,423.69,215.64,421.66,215.64Zm2-12.12c-2.89,0-4.65.63-5.11,1.26a.44.44,0,0,0-.07.45l2.41,8c0,.14.12.4.79.4,1.16,0,3.6-.91,6.64-3.48,1.77-1.5,3.58-3.73,3.33-4.54s-3-1.67-5.28-1.94A23.46,23.46,0,0,0,423.64,203.52Z" transform="translate(-129.04 -9.24)"/><path class="cls-2" d="M417.49,205.51l2.41,8c.66,2.21,4.73,1,9-2.6,0,0,4.25-3.58,3.64-5.59s-6.12-2.65-6.12-2.65C420.87,202,416.83,203.31,417.49,205.51Z" transform="translate(-129.04 -9.24)"/><path class="cls-3" d="M421.66,215.64h0a2.6,2.6,0,0,1-2.71-1.83l-2.41-8a2.45,2.45,0,0,1,.38-2.22c1.33-1.79,4.78-2.06,6.72-2.06a25.52,25.52,0,0,1,2.94.18c1.45.17,6.23.91,7,3.35s-2.84,5.7-4,6.64C426.66,214.17,423.69,215.64,421.66,215.64Z" transform="translate(-129.04 -9.24)"/></g></svg>