<svg xmlns="http://www.w3.org/2000/svg" viewBox="0 0 452.3 1020.61"><defs><style>.cls-1{fill:#fff;}.cls-1,.cls-2{stroke:#1d1d1b;stroke-miterlimit:10;stroke-width:3px;}.cls-2{fill:none;}</style></defs><title>minecraft_person</title><g id="lichaam"><polygon id="t_shirt" class="cls-1" points="338.47 226.15 113.82 226.15 1.5 226.15 1.5 351.63 113.82 351.63 113.82 622.63 338.47 622.63 338.47 351.63 450.8 351.63 450.8 226.15 338.47 226.15"/><rect id="rechter_arm" class="cls-1" x="2.34" y="351.63" width="112.32" height="271"/><rect id="linker_arm" class="cls-1" x="338.47" y="351.63" width="112.32" height="271"/><rect id="broek" class="cls-1" x="114.66" y="622.63" width="223.81" height="316.32"/><line class="cls-2" x1="223.29" y1="701.07" x2="226.15" y2="938.95"/></g><g id="hoofd"><rect id="gezicht" class="cls-1" x="113.82" y="1.5" width="224.65" height="224.65"/><polygon id="haar" class="cls-1" points="113.82 1.5 113.82 37.37 113.82 74.37 150.82 74.37 150.82 37.37 301.47 37.37 301.47 74.37 338.47 74.37 338.47 37.37 338.47 1.5 113.82 1.5"/><rect id="rechter_oog_wit" class="cls-1" x="150.82" y="98.65" width="26.88" height="26.88"/><rect id="rechter_oog_kleur" class="cls-1" x="177.71" y="98.65" width="26.88" height="26.88"/><rect id="linker_oog_wit" class="cls-1" x="268.87" y="100.38" width="26.88" height="26.88"/><polygon id="mond_persoon" class="cls-1" points="241.98 154.15 241.98 181.03 223.29 181.03 204.59 181.03 204.59 154.15 177.71 154.15 177.71 181.03 177.71 203.68 223.29 203.68 268.87 203.68 268.87 181.03 268.87 154.15 241.98 154.15"/><rect id="linker_oog_kleur" class="cls-1" x="241.98" y="100.38" width="26.88" height="26.88"/><polygon id="neus" class="cls-1" points="223.29 127.27 204.59 127.27 204.59 154.15 223.29 154.15 241.98 154.15 241.98 127.27 223.29 127.27"/></g><g id="schoenen"><rect id="rechter_schoen" class="cls-1" x="113.82" y="938.95" width="112.32" height="80.16"/><rect id="linker_schoen" class="cls-1" x="226.15" y="938.95" width="112.32" height="80.16"/></g></svg>